<svg width="223.000000" height="148.000000" viewBox="0 0 223 148" fill="none" xmlns="http://www.w3.org/2000/svg" xmlns:xlink="http://www.w3.org/1999/xlink">
	<desc>
			Created with Pixso.
	</desc>
	<defs>
		<clipPath id="clip2_6">
			<rect id="Nike,_Inc.-White-Logo.wine 1" width="223.000000" height="148.000000" fill="white" fill-opacity="0"/>
		</clipPath>
	</defs>
	<rect id="Nike,_Inc.-White-Logo.wine 1" width="223.000000" height="148.000000" fill="#FFFFFF" fill-opacity="0"/>
	<g clip-path="url(#clip2_6)">
		<path id="Vector" d="M71.62 97.32C49.31 106.76 34.81 106.1 28.13 95.32C25.73 91.6 25.12 86.81 26.33 80.96C27.4 75.64 29.8 70.06 33.54 64.2C35.68 61.01 38.28 57.55 41.36 53.83C43.36 51.44 46.3 48.18 50.17 44.05C47.1 48.98 45.1 53.9 44.16 58.82C42.56 66.53 44.43 72.32 49.77 76.17C52.04 77.9 55.22 78.87 59.29 79.07C63.37 79.27 68.01 78.63 73.22 77.17L197.26 44.65L71.62 97.32Z" fill="#FFFFFF" fill-opacity="1.000000" fill-rule="nonzero"/>
	</g>
</svg>
