<svg width="91" height="8" viewBox="0 0 91 8" fill="none" xmlns="http://www.w3.org/2000/svg">
<path d="M0.644531 4.01758C0.644531 5.02539 0.996094 5.80469 1.69922 6.35547C2.40234 6.90234 3.29492 7.17578 4.37695 7.17578C5.44336 7.17578 6.26172 6.96289 6.83203 6.53711C7.40625 6.10742 7.72852 5.57617 7.79883 4.94336L7.80469 4.87305H6.38086L6.375 4.94336C6.34766 5.20117 6.17773 5.44727 5.86523 5.68164C5.55273 5.91602 5.05664 6.0332 4.37695 6.0332C3.69727 6.0332 3.14648 5.86328 2.72461 5.52344C2.30273 5.18359 2.0918 4.70117 2.0918 4.07617V3.58398C2.0918 2.99414 2.30273 2.52148 2.72461 2.16602C3.15039 1.80664 3.69922 1.62695 4.37109 1.62695C5.03125 1.62695 5.51562 1.74414 5.82422 1.97852C6.13281 2.20898 6.31641 2.45312 6.375 2.71094L6.38086 2.78711H7.80469L7.79883 2.7168C7.68555 2.08789 7.35352 1.55859 6.80273 1.12891C6.25195 0.699219 5.44336 0.484375 4.37695 0.484375C3.29492 0.484375 2.40234 0.757812 1.69922 1.30469C0.996094 1.85156 0.644531 2.63086 0.644531 3.64258V4.01758Z" fill="#3A4F39"/>
<path d="M9.68625 4.01758C9.68625 5.0293 10.0378 5.80859 10.7409 6.35547C11.4441 6.90234 12.3503 7.17578 13.4597 7.17578C14.5652 7.17578 15.4695 6.90234 16.1726 6.35547C16.8796 5.80859 17.2331 5.0293 17.2331 4.01758V3.64258C17.2331 2.63086 16.8796 1.85156 16.1726 1.30469C15.4695 0.757812 14.5652 0.484375 13.4597 0.484375C12.3503 0.484375 11.4441 0.757812 10.7409 1.30469C10.0378 1.85156 9.68625 2.63086 9.68625 3.64258V4.01758ZM11.1277 4.07031V3.5957C11.1277 2.96289 11.3386 2.47656 11.7605 2.13672C12.1862 1.79688 12.7527 1.62695 13.4597 1.62695C14.1628 1.62695 14.7273 1.79688 15.153 2.13672C15.5788 2.47656 15.7917 2.96289 15.7917 3.5957V4.07031C15.7917 4.69922 15.5788 5.18359 15.153 5.52344C14.7273 5.86328 14.1628 6.0332 13.4597 6.0332C12.7527 6.0332 12.1862 5.86328 11.7605 5.52344C11.3386 5.18359 11.1277 4.69922 11.1277 4.07031Z" fill="#3A4F39"/>
<path d="M19.6362 7H21.0541V4.70898H22.6069C23.5795 4.70898 24.3315 4.51758 24.8627 4.13477C25.3979 3.75195 25.6655 3.24219 25.6655 2.60547C25.6655 2.00391 25.3979 1.5293 24.8627 1.18164C24.3315 0.833984 23.5795 0.660156 22.6069 0.660156H19.6362V7ZM21.0541 3.60156V1.76758H22.5893C23.2065 1.76758 23.6362 1.8457 23.8784 2.00195C24.1245 2.1582 24.2475 2.36133 24.2475 2.61133C24.2475 2.89648 24.1245 3.13281 23.8784 3.32031C23.6362 3.50781 23.2065 3.60156 22.5893 3.60156H21.0541ZM24.4877 7H26.0815L23.978 4.11719L22.4135 4.07617L24.4877 7Z" fill="#3A4F39"/>
<path d="M28.0334 7H29.4513V4.78516H31.0802C32.0685 4.78516 32.8263 4.59375 33.3537 4.21094C33.8849 3.82812 34.1505 3.31055 34.1505 2.6582C34.1505 2.03711 33.8849 1.54883 33.3537 1.19336C32.8263 0.837891 32.0705 0.660156 31.0861 0.660156H28.0334V7ZM29.4513 3.67773V1.76758H31.0334C31.6662 1.76758 32.1076 1.84961 32.3576 2.01367C32.6115 2.17773 32.7384 2.39258 32.7384 2.6582C32.7384 2.95898 32.6115 3.20508 32.3576 3.39648C32.1076 3.58398 31.6662 3.67773 31.0334 3.67773H29.4513Z" fill="#3A4F39"/>
<path d="M35.8739 4.01758C35.8739 5.0293 36.2255 5.80859 36.9286 6.35547C37.6317 6.90234 38.538 7.17578 39.6473 7.17578C40.7528 7.17578 41.6571 6.90234 42.3602 6.35547C43.0673 5.80859 43.4208 5.0293 43.4208 4.01758V3.64258C43.4208 2.63086 43.0673 1.85156 42.3602 1.30469C41.6571 0.757812 40.7528 0.484375 39.6473 0.484375C38.538 0.484375 37.6317 0.757812 36.9286 1.30469C36.2255 1.85156 35.8739 2.63086 35.8739 3.64258V4.01758ZM37.3153 4.07031V3.5957C37.3153 2.96289 37.5262 2.47656 37.9481 2.13672C38.3739 1.79688 38.9403 1.62695 39.6473 1.62695C40.3505 1.62695 40.9149 1.79688 41.3407 2.13672C41.7665 2.47656 41.9794 2.96289 41.9794 3.5957V4.07031C41.9794 4.69922 41.7665 5.18359 41.3407 5.52344C40.9149 5.86328 40.3505 6.0332 39.6473 6.0332C38.9403 6.0332 38.3739 5.86328 37.9481 5.52344C37.5262 5.18359 37.3153 4.69922 37.3153 4.07031Z" fill="#3A4F39"/>
<path d="M45.8238 7H47.2418V4.70898H48.7945C49.7672 4.70898 50.5191 4.51758 51.0504 4.13477C51.5855 3.75195 51.8531 3.24219 51.8531 2.60547C51.8531 2.00391 51.5855 1.5293 51.0504 1.18164C50.5191 0.833984 49.7672 0.660156 48.7945 0.660156H45.8238V7ZM47.2418 3.60156V1.76758H48.777C49.3941 1.76758 49.8238 1.8457 50.066 2.00195C50.3121 2.1582 50.4352 2.36133 50.4352 2.61133C50.4352 2.89648 50.3121 3.13281 50.066 3.32031C49.8238 3.50781 49.3941 3.60156 48.777 3.60156H47.2418ZM50.6754 7H52.2691L50.1656 4.11719L48.6012 4.07617L50.6754 7Z" fill="#3A4F39"/>
<path d="M53.2015 7H54.5374L56.8226 2.39453C56.8695 2.29297 56.9124 2.19531 56.9515 2.10156C56.9945 2.00781 57.0316 1.91211 57.0628 1.81445H57.1214C57.1566 1.91211 57.1937 2.00781 57.2327 2.10156C57.2718 2.19531 57.3167 2.29297 57.3675 2.39453L59.6409 7H61.1175L57.8597 0.630859H56.4476L53.2015 7ZM54.6488 5.66992H59.5999L59.096 4.56836L55.1527 4.5625L54.6488 5.66992Z" fill="#3A4F39"/>
<path d="M61.2295 1.77344H63.9424V7H65.3604V1.77344H68.0791V0.660156H61.2295V1.77344Z" fill="#3A4F39"/>
<path d="M69.9783 7H71.3904V0.660156H69.9783V7Z" fill="#3A4F39"/>
<path d="M73.8052 4.01758C73.8052 5.0293 74.1567 5.80859 74.8598 6.35547C75.563 6.90234 76.4692 7.17578 77.5786 7.17578C78.6841 7.17578 79.5884 6.90234 80.2915 6.35547C80.9985 5.80859 81.352 5.0293 81.352 4.01758V3.64258C81.352 2.63086 80.9985 1.85156 80.2915 1.30469C79.5884 0.757812 78.6841 0.484375 77.5786 0.484375C76.4692 0.484375 75.563 0.757812 74.8598 1.30469C74.1567 1.85156 73.8052 2.63086 73.8052 3.64258V4.01758ZM75.2466 4.07031V3.5957C75.2466 2.96289 75.4575 2.47656 75.8794 2.13672C76.3052 1.79688 76.8716 1.62695 77.5786 1.62695C78.2817 1.62695 78.8462 1.79688 79.2719 2.13672C79.6977 2.47656 79.9106 2.96289 79.9106 3.5957V4.07031C79.9106 4.69922 79.6977 5.18359 79.2719 5.52344C78.8462 5.86328 78.2817 6.0332 77.5786 6.0332C76.8716 6.0332 76.3052 5.86328 75.8794 5.52344C75.4575 5.18359 75.2466 4.69922 75.2466 4.07031Z" fill="#3A4F39"/>
<path d="M83.7551 7H85.05V3.02148C85.05 2.93164 85.0441 2.83398 85.0324 2.72852C85.0207 2.62305 85.007 2.52539 84.9914 2.43555H85.0559C85.1027 2.51367 85.1555 2.5957 85.2141 2.68164C85.2766 2.76758 85.3449 2.85352 85.4191 2.93945L89.0227 7H90.5461V0.660156H89.2512V4.62109C89.2512 4.71484 89.2551 4.82227 89.2629 4.94336C89.2746 5.06055 89.2902 5.16602 89.3098 5.25977H89.2512C89.1965 5.17773 89.1379 5.08984 89.0754 4.99609C89.0129 4.90234 88.9445 4.8125 88.8703 4.72656L85.2668 0.660156H83.7551V7Z" fill="#3A4F39"/>
</svg>

