<svg width="17.000000" height="14.000000" viewBox="0 0 17 14" fill="none" xmlns="http://www.w3.org/2000/svg" xmlns:xlink="http://www.w3.org/1999/xlink">
	<desc>
			Created with Pixso.
	</desc>
	<defs/>
	<path id="Vector" d="M14.26 0C15.66 0 16.78 1.12 16.78 2.51L16.78 10.91C16.78 12.3 15.66 13.42 14.26 13.42L2.51 13.42C1.12 13.42 0 12.3 0 10.91L0 2.51C0 1.12 1.12 0 2.51 0L14.26 0ZM15.1 2.79L8.94 8.18C8.65 8.43 8.23 8.46 7.92 8.25L7.84 8.18L1.67 2.79L1.67 10.91C1.67 11.37 2.05 11.75 2.51 11.75L14.26 11.75C14.73 11.75 15.1 11.37 15.1 10.91L15.1 2.79ZM13.83 1.67L2.95 1.67L8.39 6.43L13.83 1.67Z" fill="#7C7C7C" fill-opacity="0.700000" fill-rule="evenodd"/>
</svg>
