<svg width="15.000000" height="19.000000" viewBox="0 0 15 19" fill="none" xmlns="http://www.w3.org/2000/svg" xmlns:xlink="http://www.w3.org/1999/xlink">
	<desc>
			Created with Pixso.
	</desc>
	<defs/>
	<path id="Icon" d="M6.8 -0.86C2.84 -0.86 -0.45 2.17 -0.77 6.11C-0.95 8.23 -0.3 10.33 1.05 11.98L5.44 17.35C6.25 18.33 7.75 18.33 8.55 17.35L12.94 11.98C14.29 10.33 14.94 8.23 14.76 6.11C14.44 2.17 11.15 -0.86 7.19 -0.86L6.8 -0.86ZM0.6 6.23C0.86 3 3.56 0.52 6.8 0.52L7.19 0.52C10.43 0.52 13.13 3 13.39 6.23C13.54 7.99 13 9.74 11.88 11.11L7.48 16.48C7.23 16.79 6.76 16.79 6.51 16.48L2.11 11.11C1 9.74 0.45 7.99 0.6 6.23ZM7 2.81C4.59 2.81 2.64 4.76 2.64 7.16C2.64 9.57 4.59 11.52 7 11.52C9.4 11.52 11.35 9.57 11.35 7.16C11.35 4.76 9.4 2.81 7 2.81ZM4.02 7.16C4.02 5.52 5.35 4.18 7 4.18C8.64 4.18 9.97 5.52 9.97 7.16C9.97 8.81 8.64 10.14 7 10.14C5.35 10.14 4.02 8.81 4.02 7.16Z" fill="#A4A4A4" fill-opacity="1.000000" fill-rule="evenodd"/>
</svg>
