<svg width="17.000000" height="17.000000" viewBox="0 0 17 17" fill="none" xmlns="http://www.w3.org/2000/svg" xmlns:xlink="http://www.w3.org/1999/xlink">
	<desc>
			Created with Pixso.
	</desc>
	<defs/>
	<path id="Vector" d="M4.05 0.26C3.74 -0.09 3.18 -0.09 2.83 0.26L0.65 2.45C0 3.1 -0.19 4.06 0.19 4.83C2.45 9.49 6.16 13.22 10.82 15.48C11.59 15.85 12.55 15.67 13.2 15.02L15.4 12.81C15.76 12.46 15.76 11.89 15.4 11.59L12.33 8.95C12.01 8.67 11.51 8.71 11.19 9.03L10.12 10.1C10 10.22 9.82 10.25 9.69 10.17C7.94 9.16 6.49 7.72 5.48 5.97C5.41 5.83 5.43 5.65 5.55 5.53L6.62 4.47C6.94 4.14 6.98 3.64 6.7 3.32L4.05 0.26Z" stroke="#7C7C7C" stroke-opacity="0.700000" stroke-width="1.800000" stroke-linejoin="round"/>
</svg>
