<svg width="17.000000" height="17.000000" viewBox="0 0 17 17" fill="none" xmlns="http://www.w3.org/2000/svg" xmlns:xlink="http://www.w3.org/1999/xlink">
	<desc>
			Created with Pixso.
	</desc>
	<defs/>
	<path id="Vector" d="M6.3 -0.28C3.02 0.37 0.37 3.02 -0.27 6.3C-1.25 11.26 2.14 15.66 6.73 16.32C7.39 16.43 8 15.89 8 15.22L8 15.19C8 14.64 7.6 14.18 7.05 14.1C4.09 13.64 1.81 11.07 1.81 7.97C1.81 4.35 4.92 1.45 8.61 1.81C11.83 2.12 14.18 5.01 14.18 8.25L14.18 8.81C14.18 9.59 13.55 10.22 12.78 10.22C12 10.22 11.37 9.59 11.37 8.81L11.37 4.59C11.37 4.28 11.12 4.03 10.81 4.03L9.68 4.03C9.43 4.03 9.22 4.2 9.15 4.44C8.28 4.01 7.25 3.86 6.13 4.26C4.76 4.74 3.73 5.98 3.53 7.41C3.2 9.84 5.07 11.91 7.43 11.91C8.36 11.91 9.21 11.58 9.88 11.04C10.72 12.14 12.17 12.75 13.73 12.35C15.35 11.98 16.43 10.39 16.4 8.74L16.4 8.01C16.4 2.76 11.69 -1.33 6.3 -0.28ZM7.4 9.69C6.47 9.69 5.71 8.94 5.71 8C5.71 7.07 6.47 6.31 7.4 6.31C8.33 6.31 9.09 7.07 9.09 8C9.09 8.94 8.36 9.69 7.4 9.69Z" fill="#838383" fill-opacity="1.000000" fill-rule="nonzero"/>
</svg>
