<svg width="528.000000" height="38.000000" viewBox="0 0 528 38" fill="none" xmlns="http://www.w3.org/2000/svg" xmlns:xlink="http://www.w3.org/1999/xlink">
	<desc>
			Created with Pixso.
	</desc>
	<defs/>
	<path id="Best selers" d="M292.64 30L295.53 30L295.53 6L292.64 6L292.64 30ZM187.64 7.25L187.64 30L195.53 30Q199.15 30 201.14 28.25Q201.71 27.74 202.12 27.12Q203.12 25.61 203.12 23.43Q203.12 21.91 202.5 20.7Q202.3 20.33 202.05 19.99Q201.67 19.48 201.2 19.08Q200.33 18.36 199.14 18.03Q200.52 17.43 201.39 16.4Q201.5 16.27 201.6 16.13Q201.96 15.65 202.17 15.12Q202.51 14.28 202.51 13.31Q202.51 10.97 201.37 9.52Q201.05 9.11 200.64 8.78Q198.78 7.25 195.07 7.25L187.64 7.25ZM244.48 13.09L244.48 9L241.59 9L241.59 13.09L238.51 13.09L238.51 15.32L241.59 15.32L241.59 25.81Q241.59 27.96 242.57 29.14Q242.76 29.36 242.98 29.54Q243.93 30.31 245.5 30.31Q246.57 30.31 247.71 30L247.71 27.65Q246.84 27.84 246.34 27.84Q245.34 27.84 244.91 27.34Q244.91 27.34 244.9 27.33Q244.48 26.82 244.48 25.81L244.48 15.32L247.64 15.32L247.64 13.09L244.48 13.09ZM195.17 16.95L190.64 16.95L190.64 9.71L195.07 9.71Q197.31 9.71 198.4 10.57Q198.56 10.69 198.7 10.83Q199.5 11.69 199.5 13.29Q199.5 14.35 199.03 15.14Q198.75 15.6 198.32 15.96Q198.29 15.99 198.26 16.01Q197.09 16.95 195.17 16.95ZM210.17 29.34Q211.87 30.31 214.12 30.31Q216.65 30.31 218.43 29.15Q219.63 28.36 220.5 27.04L218.73 25.67Q218.03 26.57 217.12 27.17Q217 27.25 216.87 27.32Q215.81 27.95 214.28 27.95Q213.08 27.95 212.12 27.47Q211.34 27.09 210.72 26.41Q210.52 26.19 210.35 25.95Q209.31 24.51 209.26 22.37L220.71 22.37L220.71 21.17Q220.71 17.12 218.89 14.95Q218.35 14.31 217.68 13.85Q216.08 12.78 213.76 12.78Q212.88 12.78 212.05 12.99Q210.99 13.27 210.02 13.89Q209.55 14.2 209.13 14.57Q208.03 15.55 207.33 16.99Q206.37 18.96 206.37 21.48L206.37 22.01Q206.37 25.14 207.84 27.22Q208.15 27.66 208.53 28.05Q209.27 28.83 210.17 29.34ZM233.6 24.32Q233.9 24.83 233.9 25.51Q233.9 25.97 233.73 26.36Q233.49 26.9 232.91 27.28Q231.92 27.95 230.28 27.95Q228.5 27.95 227.41 27.1Q226.95 26.74 226.67 26.27Q226.29 25.63 226.25 24.79L223.35 24.79Q223.35 25.37 223.49 25.91Q223.69 26.79 224.24 27.58Q224.39 27.8 224.56 28.01Q225.39 28.99 226.68 29.59Q228.25 30.31 230.28 30.31Q233.17 30.31 234.98 28.94Q235.89 28.25 236.34 27.34Q236.79 26.43 236.79 25.31Q236.79 24.01 236.21 23.1Q236.18 23.05 236.14 23Q235.5 22.06 234.15 21.39Q232.81 20.71 230.64 20.23Q228.48 19.75 227.65 19.21Q227.29 18.98 227.09 18.66Q226.82 18.23 226.82 17.64Q226.82 17.1 227.03 16.66Q227.25 16.19 227.71 15.84Q228.6 15.15 230.18 15.15Q231.4 15.15 232.28 15.69Q232.51 15.83 232.72 16.01Q233.38 16.57 233.61 17.27Q233.73 17.65 233.73 18.06L236.64 18.06Q236.64 16.92 236.2 15.98Q235.75 15.01 234.85 14.26Q234.71 14.15 234.57 14.04Q232.84 12.78 230.18 12.78Q227.77 12.78 226.11 13.9Q225.89 14.05 225.69 14.21Q224.6 15.1 224.19 16.24Q223.93 16.94 223.93 17.73Q223.93 18.81 224.39 19.63Q224.46 19.76 224.55 19.89Q225.17 20.79 226.46 21.45Q227.75 22.1 229.94 22.57Q232.14 23.04 233.02 23.69Q233.39 23.96 233.6 24.32ZM268.48 24.32Q268.78 24.83 268.78 25.51Q268.78 25.97 268.6 26.36Q268.36 26.9 267.78 27.28Q266.79 27.95 265.15 27.95Q263.37 27.95 262.28 27.1Q261.82 26.74 261.55 26.27Q261.17 25.63 261.12 24.79L258.23 24.79Q258.23 25.37 258.36 25.91Q258.57 26.79 259.11 27.58Q259.26 27.8 259.44 28.01Q260.26 28.99 261.56 29.59Q263.12 30.31 265.15 30.31Q268.04 30.31 269.85 28.94Q270.76 28.25 271.22 27.34Q271.67 26.43 271.67 25.31Q271.67 24.01 271.08 23.1Q271.05 23.05 271.02 23Q270.37 22.06 269.03 21.39Q267.68 20.71 265.52 20.23Q263.35 19.75 262.53 19.21Q262.17 18.98 261.97 18.66Q261.7 18.23 261.7 17.64Q261.7 17.1 261.91 16.66Q262.13 16.19 262.59 15.84Q263.48 15.15 265.06 15.15Q266.27 15.15 267.15 15.69Q267.39 15.83 267.6 16.01Q268.26 16.57 268.48 17.27Q268.6 17.65 268.6 18.06L271.51 18.06Q271.51 16.92 271.08 15.98Q270.63 15.01 269.72 14.26Q269.58 14.15 269.44 14.04Q267.71 12.78 265.06 12.78Q262.64 12.78 260.99 13.9Q260.77 14.05 260.57 14.21Q259.48 15.1 259.06 16.24Q258.81 16.94 258.81 17.73Q258.81 18.81 259.26 19.63Q259.34 19.76 259.43 19.89Q260.04 20.79 261.33 21.45Q262.62 22.1 264.82 22.57Q267.01 23.04 267.89 23.69Q268.26 23.96 268.48 24.32ZM278.5 29.34Q280.2 30.31 282.45 30.31Q284.98 30.31 286.75 29.15Q287.96 28.36 288.82 27.04L287.06 25.67Q286.36 26.57 285.45 27.17Q285.33 27.25 285.2 27.32Q284.14 27.95 282.6 27.95Q281.41 27.95 280.44 27.47Q279.67 27.09 279.05 26.41Q278.85 26.19 278.68 25.95Q277.64 24.51 277.59 22.37L289.04 22.37L289.04 21.17Q289.04 17.12 287.21 14.95Q286.67 14.31 286.01 13.85Q284.41 12.78 282.09 12.78Q281.21 12.78 280.38 12.99Q279.32 13.27 278.35 13.89Q277.88 14.2 277.46 14.57Q276.36 15.55 275.66 16.99Q274.7 18.96 274.7 21.48L274.7 22.01Q274.7 25.14 276.17 27.22Q276.48 27.66 276.85 28.05Q277.6 28.83 278.5 29.34ZM303.22 29.34Q304.92 30.31 307.17 30.31Q309.7 30.31 311.47 29.15Q312.68 28.36 313.54 27.04L311.78 25.67Q311.07 26.57 310.17 27.17Q310.04 27.25 309.92 27.32Q308.85 27.95 307.32 27.95Q306.13 27.95 305.16 27.47Q304.39 27.09 303.77 26.41Q303.57 26.19 303.39 25.95Q302.36 24.51 302.31 22.37L313.76 22.37L313.76 21.17Q313.76 17.12 311.93 14.95Q311.39 14.31 310.72 13.85Q309.13 12.78 306.81 12.78Q305.93 12.78 305.1 12.99Q304.04 13.27 303.07 13.89Q302.59 14.2 302.18 14.57Q301.08 15.55 300.38 16.99Q299.42 18.96 299.42 21.48L299.42 22.01Q299.42 25.14 300.89 27.22Q301.2 27.66 301.57 28.05Q302.32 28.83 303.22 29.34ZM323.85 15.57Q324.62 15.57 325.28 15.68L325.28 13Q324.84 12.78 324 12.78Q322.76 12.78 321.79 13.28Q320.71 13.85 319.96 15.04L319.92 13.09L317.1 13.09L317.1 30L320 30L320 18Q320.44 16.94 321.23 16.35Q322.25 15.57 323.85 15.57ZM337.48 24.32Q337.78 24.83 337.78 25.51Q337.78 25.97 337.6 26.36Q337.36 26.9 336.78 27.28Q335.79 27.95 334.15 27.95Q332.37 27.95 331.28 27.1Q330.83 26.74 330.55 26.27Q330.17 25.63 330.12 24.79L327.23 24.79Q327.23 25.37 327.36 25.91Q327.57 26.79 328.11 27.58Q328.26 27.8 328.44 28.01Q329.26 28.99 330.56 29.59Q332.12 30.31 334.15 30.31Q337.04 30.31 338.85 28.94Q339.77 28.25 340.22 27.34Q340.67 26.43 340.67 25.31Q340.67 24.01 340.08 23.1Q340.05 23.05 340.02 23Q339.37 22.06 338.03 21.39Q336.68 20.71 334.52 20.23Q332.35 19.75 331.53 19.21Q331.17 18.98 330.97 18.66Q330.7 18.23 330.7 17.64Q330.7 17.1 330.91 16.66Q331.13 16.19 331.59 15.84Q332.48 15.15 334.06 15.15Q335.27 15.15 336.15 15.69Q336.39 15.83 336.6 16.01Q337.26 16.57 337.48 17.27Q337.6 17.65 337.6 18.06L340.51 18.06Q340.51 16.92 340.08 15.98Q339.63 15.01 338.72 14.26Q338.58 14.15 338.44 14.04Q336.71 12.78 334.06 12.78Q331.64 12.78 329.99 13.9Q329.77 14.05 329.57 14.21Q328.48 15.1 328.06 16.24Q327.81 16.94 327.81 17.73Q327.81 18.81 328.27 19.63Q328.34 19.76 328.43 19.89Q329.04 20.79 330.33 21.45Q331.62 22.1 333.82 22.57Q336.01 23.04 336.89 23.69Q337.26 23.96 337.48 24.32ZM212.13 15.48Q212.87 15.15 213.76 15.15Q214.98 15.15 215.85 15.69Q216.29 15.96 216.64 16.36Q217.7 17.57 217.82 19.78L217.82 20L209.35 20Q209.64 17.7 210.82 16.42Q211.41 15.8 212.13 15.48ZM280.46 15.48Q281.2 15.15 282.09 15.15Q283.3 15.15 284.18 15.69Q284.61 15.96 284.96 16.36Q286.03 17.57 286.15 19.78L286.15 20L277.68 20Q277.96 17.7 279.15 16.42Q279.74 15.8 280.46 15.48ZM305.18 15.48Q305.92 15.15 306.81 15.15Q308.02 15.15 308.9 15.69Q309.33 15.96 309.68 16.36Q310.75 17.57 310.87 19.78L310.87 20L302.4 20Q302.68 17.7 303.87 16.42Q304.45 15.8 305.18 15.48ZM190.64 27.54L190.64 19.35L195.64 19.35Q198.06 19.35 199.17 20.56Q200.1 21.58 200.1 23.46Q200.1 24.86 199.46 25.81Q199.22 26.16 198.89 26.46Q198.83 26.52 198.75 26.57Q197.57 27.54 195.59 27.54L190.64 27.54Z" fill="#000000" fill-opacity="1.000000" fill-rule="evenodd"/>
	<path id="Line 1" d="M1 18L166 18" stroke="#D9D9D9" stroke-opacity="1.000000" stroke-width="2.000000" stroke-linecap="round"/>
	<path id="Line 2" d="M362 18L527 18" stroke="#D9D9D9" stroke-opacity="1.000000" stroke-width="2.000000" stroke-linecap="round"/>
</svg>
