<svg width="37.000000" height="63.000000" viewBox="0 0 37 63" fill="none" xmlns="http://www.w3.org/2000/svg" xmlns:xlink="http://www.w3.org/1999/xlink">
	<desc>
			Created with Pixso.
	</desc>
	<defs/>
	<path id="Icon" d="M12.95 4.26C16.14 1.07 20.46 -0.72 24.97 -0.72L33.71 -0.72C35.05 -0.72 36.14 0.37 36.14 1.71L36.14 13.36C36.14 14.7 35.05 15.79 33.71 15.79L24.97 15.79C24.84 15.79 24.71 15.84 24.62 15.93C24.53 16.02 24.48 16.15 24.48 16.28L24.48 22.59L33.71 22.59C34.46 22.59 35.16 22.93 35.62 23.52C36.08 24.11 36.25 24.88 36.06 25.61L33.15 37.26C32.88 38.34 31.91 39.1 30.79 39.1L24.48 39.1L24.48 59.98C24.48 61.32 23.39 62.41 22.05 62.41L10.4 62.41C9.06 62.41 7.97 61.32 7.97 59.98L7.97 39.1L1.66 39.1C0.32 39.1 -0.77 38.01 -0.77 36.67L-0.77 25.02C-0.77 23.68 0.32 22.59 1.66 22.59L7.97 22.59L7.97 16.28C7.97 11.77 9.76 7.45 12.95 4.26ZM24.97 4.14C21.75 4.14 18.66 5.41 16.38 7.69C14.11 9.97 12.83 13.06 12.83 16.28L12.83 25.02C12.83 26.36 11.74 27.45 10.4 27.45L4.09 27.45L4.09 34.25L10.4 34.25C11.74 34.25 12.83 35.33 12.83 36.67L12.83 57.56L19.63 57.56L19.63 36.67C19.63 35.33 20.71 34.25 22.05 34.25L28.9 34.25L30.6 27.45L22.05 27.45C20.71 27.45 19.63 26.36 19.63 25.02L19.63 16.28C19.63 14.86 20.19 13.5 21.19 12.5C22.19 11.5 23.55 10.93 24.97 10.93L31.28 10.93L31.28 4.14L24.97 4.14Z" fill="#D2D2D2" fill-opacity="1.000000" fill-rule="evenodd"/>
</svg>
