<svg width="61.000000" height="61.000000" viewBox="0 0 61 61" fill="none" xmlns="http://www.w3.org/2000/svg" xmlns:xlink="http://www.w3.org/1999/xlink">
	<desc>
			Created with Pixso.
	</desc>
	<defs/>
	<path id="Icon" d="M12.82 0.17C24.04 -1.09 35.65 -1.09 46.87 0.17C53.38 0.9 58.64 6.03 59.41 12.58C60.75 24.05 60.75 35.64 59.41 47.12C58.64 53.66 53.38 58.8 46.87 59.52C35.65 60.78 24.04 60.78 12.82 59.52C6.31 58.8 1.05 53.66 0.28 47.12C-1.06 35.64 -1.06 24.05 0.28 12.58C1.05 6.03 6.31 0.9 12.82 0.17ZM46.33 5C35.46 3.78 24.23 3.78 13.36 5C9.05 5.48 5.61 8.87 5.11 13.14C3.81 24.24 3.81 35.45 5.11 46.55C5.61 50.82 9.05 54.22 13.36 54.7C24.23 55.91 35.46 55.91 46.33 54.7C50.63 54.22 54.08 50.82 54.58 46.55C55.88 35.45 55.88 24.24 54.58 13.14C54.08 8.87 50.63 5.48 46.33 5ZM42.79 13.66C42.79 11.87 44.24 10.42 46.03 10.42C47.82 10.42 49.27 11.87 49.27 13.66C49.27 15.45 47.82 16.9 46.03 16.9C44.24 16.9 42.79 15.45 42.79 13.66ZM29.84 14.47C21.35 14.47 14.47 21.35 14.47 29.85C14.47 38.34 21.35 45.22 29.84 45.22C38.34 45.22 45.22 38.34 45.22 29.85C45.22 21.35 38.34 14.47 29.84 14.47ZM19.32 29.85C19.32 24.03 24.03 19.33 29.84 19.33C35.66 19.33 40.37 24.03 40.37 29.85C40.37 35.66 35.66 40.37 29.84 40.37C24.03 40.37 19.32 35.66 19.32 29.85Z" fill="#D2D2D2" fill-opacity="1.000000" fill-rule="evenodd"/>
</svg>

