<svg width="66.000000" height="58.000000" viewBox="0 0 66 58" fill="none" xmlns="http://www.w3.org/2000/svg" xmlns:xlink="http://www.w3.org/1999/xlink">
	<desc>
			Created with Pixso.
	</desc>
	<defs/>
	<path id="Icon" d="M13.73 34.38C13.87 34.43 14.02 34.46 14.16 34.49C14.32 34.85 14.52 35.33 14.75 35.88C15.33 37.23 16.1 39.06 16.9 40.97C18.52 44.86 20.16 48.87 20.52 50.02C20.97 51.43 21.45 52.4 21.96 53.06C22.23 53.4 22.54 53.7 22.9 53.92C23.08 54.04 23.28 54.13 23.48 54.2C23.49 54.2 23.5 54.2 23.5 54.21C24.54 54.6 25.49 54.43 26.08 54.24C26.39 54.13 26.65 54 26.83 53.9C26.92 53.84 27 53.79 27.06 53.75L27.08 53.74L36.23 48.04L46.8 56.14C46.95 56.26 47.12 56.36 47.3 56.44C48.57 56.99 49.8 57.18 50.96 57.03C52.11 56.87 53.03 56.38 53.71 55.84C54.38 55.3 54.83 54.7 55.12 54.26C55.26 54.03 55.37 53.83 55.45 53.68C55.48 53.6 55.51 53.53 55.54 53.48L55.57 53.41L55.58 53.38L55.58 53.37L55.59 53.36L55.59 53.36C55.64 53.22 55.69 53.08 55.72 52.93L65.36 4.28C65.4 4.13 65.41 3.97 65.41 3.81C65.41 2.39 64.87 1.03 63.61 0.21C62.53 -0.49 61.33 -0.52 60.57 -0.46C59.75 -0.4 59 -0.2 58.49 -0.04C58.22 0.05 58 0.13 57.84 0.19C57.76 0.22 57.7 0.25 57.65 0.27L57.61 0.28L3.5 21.51L3.49 21.51C3.46 21.52 3.42 21.54 3.36 21.56C3.26 21.6 3.12 21.66 2.95 21.73C2.63 21.88 2.19 22.11 1.72 22.42C0.99 22.92 -0.7 24.3 -0.42 26.58C-0.19 28.4 1.05 29.51 1.81 30.05C2.23 30.34 2.62 30.55 2.91 30.69C3.05 30.75 3.32 30.87 3.44 30.92L3.47 30.93L13.73 34.38ZM59.5 4.75L59.5 4.76C59.47 4.77 59.44 4.78 59.42 4.79L5.24 26.04C5.21 26.06 5.18 26.07 5.16 26.08L5.12 26.09C5.09 26.1 5.03 26.12 4.96 26.16C4.92 26.18 4.87 26.2 4.83 26.22C4.89 26.25 4.95 26.28 5 26.31C5.05 26.33 5.09 26.35 5.11 26.35L15.28 29.78C15.47 29.84 15.64 29.93 15.8 30.03L49.4 10.36L49.43 10.34C49.45 10.33 49.48 10.31 49.52 10.29C49.6 10.24 49.7 10.19 49.83 10.12C50.06 10 50.43 9.83 50.86 9.7C51.15 9.61 52.01 9.35 52.94 9.65C53.52 9.84 54.12 10.23 54.5 10.91C54.7 11.24 54.8 11.58 54.85 11.88C54.98 12.37 54.96 12.84 54.86 13.26C54.63 14.15 54.01 14.84 53.44 15.37C52.95 15.82 46.66 21.9 40.44 27.89C37.34 30.88 34.28 33.84 31.98 36.05L30.48 37.51L49.49 52.08C49.92 52.24 50.18 52.23 50.3 52.21C50.44 52.19 50.56 52.14 50.68 52.05C50.81 51.94 50.93 51.8 51.01 51.66L51.02 51.65L60.38 4.47C60.24 4.51 60.1 4.55 59.96 4.59C59.81 4.64 59.68 4.68 59.6 4.72C59.56 4.73 59.53 4.75 59.51 4.75L59.5 4.75ZM32.11 44.88L28.32 41.97L27.4 47.82L32.11 44.88ZM24.84 36.2L28.61 32.56C30.9 30.35 33.97 27.39 37.07 24.4L40.22 21.36L19.11 33.72L19.22 33.98C19.8 35.34 20.57 37.18 21.38 39.09C21.98 40.53 22.6 42.04 23.17 43.44L24.09 37.61C24.18 37.05 24.45 36.56 24.84 36.2Z" fill="#D2D2D2" fill-opacity="1.000000" fill-rule="evenodd"/>
</svg>

