<svg width="90" height="41" viewBox="0 0 90 41" fill="none" xmlns="http://www.w3.org/2000/svg">
<path fill-rule="evenodd" clip-rule="evenodd" d="M7.17545 0.513888H18.2541L22.7184 27.8475V10.8389C22.7184 7.70548 23.5075 4.98524 25.3549 2.96341L25.363 2.95454L25.3712 2.94577C27.2931 0.892507 29.9667 0 33.0673 0C36.1607 0 38.8274 0.889076 40.7199 2.95434C41.6866 3.98987 42.3708 5.21027 42.808 6.57696V0.513888H54.6385L56.5583 14.2148L58.4782 0.513888H70.3087V40.4861H60.9489V37.1437L60.4429 40.4861H52.2615L51.7555 37.1437V40.4861H42.808V34.423C42.3708 35.7897 41.6867 37.0101 40.72 38.0456C38.8274 40.1109 36.1608 41 33.0673 41C29.9667 41 27.2931 40.1075 25.3712 38.0542L25.363 38.0455L25.3549 38.0366C24.8604 37.4954 24.4417 36.9042 24.0937 36.2684L24.7826 40.4861H15.0283L14.0124 33.4458H11.0161L9.98537 40.4861H0.646973L7.17545 0.513888ZM9.28759 31.4458H15.7297V31.3431L16.7604 38.4861H22.4294L16.5543 2.51389H8.8753L3.00012 38.4861H8.25686L9.28759 31.4458ZM42.808 23.0736V16.6417H34.0564V10.4792C34.0564 9.60114 33.8632 9.31557 33.8229 9.268C33.8096 9.25235 33.7914 9.23298 33.7308 9.20919C33.6581 9.18063 33.5023 9.13889 33.2219 9.13889C32.9415 9.13889 32.7858 9.18063 32.7131 9.20919C32.6525 9.23298 32.6343 9.25235 32.621 9.268C32.5806 9.31557 32.3874 9.60114 32.3874 10.4792V30.5722C32.3874 31.427 32.578 31.6948 32.611 31.7332C32.6219 31.7458 32.6396 31.7656 32.7033 31.7902C32.779 31.8195 32.9383 31.8611 33.2219 31.8611C33.5055 31.8611 33.6648 31.8195 33.7406 31.7902C33.8042 31.7656 33.8219 31.7458 33.8328 31.7332C33.8659 31.6948 34.0564 31.427 34.0564 30.5722V23.0736H42.808ZM49.7555 11.25H49.8586L53.9815 38.4861H58.7229L62.8458 11.25H62.9489V38.4861H68.3087V2.51389H60.2175L56.6099 28.2597H56.5068L52.8992 2.51389H44.808V38.4861H49.7555V11.25ZM70.5391 0.513888H90.0001V9.65278H80.2082V15.1597H87.9902V24.2986H80.2082V31.3472H90.0001V40.4861H70.5391V0.513888ZM78.2082 33.3472V22.2986H85.9902V17.1597H78.2082V7.65278H88.0001V2.51389H72.5391V38.4861H88.0001V33.3472H78.2082ZM12.4313 8.78333H12.5344L15.0597 26.5639H9.95757L12.4313 8.78333ZM12.5027 22.7838L12.2551 24.5639H12.7556L12.5027 22.7838ZM26.8314 36.6875C28.2744 38.2292 30.353 39 33.0673 39C35.7816 39 37.843 38.2292 39.2517 36.6875C40.6947 35.1458 41.4162 32.9704 41.4162 30.1611V25.0736H36.0564V30.5722C36.0564 32.7648 35.1116 33.8611 33.2219 33.8611C31.3322 33.8611 30.3874 32.7648 30.3874 30.5722V10.4792C30.3874 8.25232 31.3322 7.13889 33.2219 7.13889C35.1116 7.13889 36.0564 8.25232 36.0564 10.4792V14.6417H41.4162V10.8389C41.4162 8.02963 40.6947 5.85417 39.2517 4.3125C37.843 2.77083 35.7816 2 33.0673 2C30.353 2 28.2744 2.77083 26.8314 4.3125C25.4227 5.85417 24.7184 8.02963 24.7184 10.8389V30.1611C24.7184 32.9704 25.4227 35.1458 26.8314 36.6875Z" fill="#3A4F39"/>
</svg>
