<svg width="21.000000" height="21.000000" viewBox="0 0 21 21" fill="none" xmlns="http://www.w3.org/2000/svg" xmlns:xlink="http://www.w3.org/1999/xlink">
	<desc>
			Created with Pixso.
	</desc>
	<defs/>
	<path id="Vector" d="M18.61 5.84L18.61 0.24C18.61 -0.04 18.5 -0.32 18.3 -0.52C18.1 -0.73 17.82 -0.84 17.53 -0.84C17.25 -0.84 16.97 -0.73 16.77 -0.52C16.57 -0.32 16.45 -0.04 16.45 0.24L16.45 5.84C15.83 6.07 15.29 6.48 14.9 7.03C14.52 7.57 14.32 8.22 14.32 8.89C14.32 9.55 14.52 10.2 14.9 10.75C15.29 11.29 15.83 11.71 16.45 11.93L16.45 19.69C16.45 19.98 16.57 20.25 16.77 20.46C16.97 20.66 17.25 20.77 17.53 20.77C17.82 20.77 18.1 20.66 18.3 20.46C18.5 20.25 18.61 19.98 18.61 19.69L18.61 11.93C19.24 11.71 19.78 11.29 20.16 10.75C20.54 10.2 20.75 9.55 20.75 8.89C20.75 8.22 20.54 7.57 20.16 7.03C19.78 6.48 19.24 6.07 18.61 5.84ZM17.53 9.97C17.32 9.97 17.11 9.9 16.93 9.78C16.76 9.67 16.62 9.5 16.54 9.3C16.45 9.1 16.43 8.89 16.47 8.67C16.52 8.47 16.62 8.27 16.77 8.12C16.92 7.97 17.11 7.87 17.32 7.83C17.53 7.78 17.75 7.81 17.95 7.89C18.14 7.97 18.31 8.11 18.43 8.29C18.55 8.46 18.61 8.67 18.61 8.89C18.61 9.17 18.5 9.45 18.3 9.65C18.1 9.85 17.82 9.97 17.53 9.97ZM11.05 12.32L11.05 0.24C11.05 -0.04 10.94 -0.32 10.73 -0.52C10.53 -0.73 10.26 -0.84 9.97 -0.84C9.68 -0.84 9.41 -0.73 9.21 -0.52C9 -0.32 8.89 -0.04 8.89 0.24L8.89 12.32C8.26 12.55 7.72 12.96 7.34 13.51C6.96 14.05 6.75 14.7 6.75 15.37C6.75 16.04 6.96 16.68 7.34 17.23C7.72 17.78 8.26 18.19 8.89 18.42L8.89 19.69C8.89 19.98 9 20.25 9.21 20.46C9.41 20.66 9.68 20.77 9.97 20.77C10.26 20.77 10.53 20.66 10.73 20.46C10.94 20.25 11.05 19.98 11.05 19.69L11.05 18.42C11.68 18.19 12.22 17.78 12.6 17.23C12.98 16.68 13.19 16.04 13.19 15.37C13.19 14.7 12.98 14.05 12.6 13.51C12.22 12.96 11.68 12.55 11.05 12.32ZM9.97 16.45C9.76 16.45 9.55 16.39 9.37 16.27C9.19 16.15 9.05 15.98 8.97 15.78C8.89 15.59 8.87 15.37 8.91 15.16C8.95 14.95 9.05 14.76 9.21 14.61C9.36 14.45 9.55 14.35 9.76 14.31C9.97 14.27 10.19 14.29 10.38 14.37C10.58 14.45 10.75 14.59 10.87 14.77C10.99 14.95 11.05 15.16 11.05 15.37C11.05 15.66 10.94 15.93 10.73 16.13C10.53 16.34 10.26 16.45 9.97 16.45ZM3.49 3.68L3.49 0.24C3.49 -0.04 3.37 -0.32 3.17 -0.52C2.97 -0.73 2.69 -0.84 2.41 -0.84C2.12 -0.84 1.84 -0.73 1.64 -0.52C1.44 -0.32 1.33 -0.04 1.33 0.24L1.33 3.68C0.7 3.91 0.16 4.32 -0.22 4.86C-0.61 5.41 -0.81 6.06 -0.81 6.73C-0.81 7.39 -0.61 8.04 -0.22 8.58C0.16 9.13 0.7 9.55 1.33 9.77L1.33 19.69C1.33 19.98 1.44 20.25 1.64 20.46C1.84 20.66 2.12 20.77 2.41 20.77C2.69 20.77 2.97 20.66 3.17 20.46C3.37 20.25 3.49 19.98 3.49 19.69L3.49 9.77C4.11 9.55 4.65 9.13 5.04 8.58C5.42 8.04 5.62 7.39 5.62 6.73C5.62 6.06 5.42 5.41 5.04 4.86C4.65 4.32 4.11 3.91 3.49 3.68ZM2.41 7.81C2.19 7.81 1.98 7.74 1.81 7.62C1.63 7.5 1.49 7.34 1.41 7.14C1.33 6.94 1.3 6.72 1.35 6.51C1.39 6.31 1.49 6.11 1.64 5.96C1.79 5.81 1.99 5.71 2.2 5.66C2.4 5.62 2.62 5.65 2.82 5.73C3.02 5.81 3.19 5.95 3.3 6.12C3.42 6.3 3.49 6.51 3.49 6.73C3.49 7.01 3.37 7.29 3.17 7.49C2.97 7.69 2.69 7.81 2.41 7.81Z" fill="#A18B7F" fill-opacity="1.000000" fill-rule="nonzero"/>
</svg>
