<svg width="407.000000" height="60.000000" viewBox="0 0 407 60" fill="none" xmlns="http://www.w3.org/2000/svg" xmlns:xlink="http://www.w3.org/1999/xlink">
	<desc>
			Created with Pixso.
	</desc>
	<defs/>
	<rect id="Rectangle 1578" x="0.500000" y="0.500000" rx="8.000000" width="406.000000" height="59.000000" stroke="#BEBEBE" stroke-opacity="1.000000" stroke-width="1.000000"/>
	<path id="Icon" d="M28.8 19.92C24.84 19.92 21.55 22.95 21.23 26.89C21.05 29.01 21.71 31.11 23.05 32.75L27.44 38.13C28.25 39.11 29.75 39.11 30.55 38.13L34.94 32.75C36.29 31.11 36.94 29.01 36.76 26.89C36.44 22.95 33.15 19.92 29.19 19.92L28.8 19.92ZM22.6 27C22.86 23.78 25.56 21.29 28.8 21.29L29.19 21.29C32.43 21.29 35.13 23.78 35.39 27C35.54 28.76 35 30.51 33.88 31.88L29.48 37.25C29.23 37.56 28.76 37.56 28.51 37.25L24.11 31.88C23 30.51 22.45 28.76 22.6 27ZM29 23.58C26.59 23.58 24.64 25.53 24.64 27.94C24.64 30.34 26.59 32.29 29 32.29C31.4 32.29 33.35 30.34 33.35 27.94C33.35 25.53 31.4 23.58 29 23.58ZM26.02 27.94C26.02 26.29 27.35 24.96 29 24.96C30.64 24.96 31.97 26.29 31.97 27.94C31.97 29.58 30.64 30.92 29 30.92C27.35 30.92 26.02 29.58 26.02 27.94Z" fill="#A5A5A5" fill-opacity="1.000000" fill-rule="evenodd"/>
	<path id="Vector" d="M356 24.77L365 33.77L374 24.77" stroke="#A5A5A5" stroke-opacity="1.000000" stroke-width="1.000000" stroke-linejoin="round" stroke-linecap="round"/>
</svg>
