<svg width="407.000000" height="34.000000" viewBox="0 0 407 34" fill="none" xmlns="http://www.w3.org/2000/svg" xmlns:xlink="http://www.w3.org/1999/xlink">
	<desc>
			Created with Pixso.
	</desc>
	<defs/>
	<rect id="Rectangle 55" rx="6.644777" width="33.223885" height="33.223885" fill="#FFFFFF" fill-opacity="1.000000"/>
	<rect id="Rectangle 55" x="0.415039" y="0.416016" rx="6.644777" width="32.393288" height="32.393288" stroke="#D3D3D3" stroke-opacity="1.000000" stroke-width="0.830597"/>
	<path id="37" d="M10.09 20.82C10.7 21.14 11.43 21.3 12.28 21.3C12.82 21.3 13.32 21.23 13.76 21.09C14.2 20.94 14.56 20.74 14.86 20.49C15.17 20.23 15.41 19.93 15.57 19.58C15.73 19.23 15.81 18.85 15.81 18.43Q15.81 17.83 15.57 17.38C15.42 17.08 15.23 16.84 15 16.64C14.77 16.44 14.52 16.28 14.25 16.17C13.98 16.06 13.73 16 13.5 15.98C13.74 15.94 13.99 15.86 14.24 15.75C14.49 15.63 14.73 15.48 14.94 15.29Q14.98 15.26 15.01 15.22Q15.28 14.96 15.45 14.6C15.59 14.33 15.66 14.02 15.66 13.66Q15.66 13.07 15.42 12.61Q15.4 12.57 15.39 12.54C15.22 12.2 14.98 11.92 14.68 11.7C14.38 11.47 14.03 11.3 13.61 11.18Q12.99 11 12.28 11Q11.11 11 10.26 11.45C9.69 11.74 9.23 12.1 8.87 12.54L9.56 13.32Q10.11 12.72 10.74 12.42Q11.36 12.11 12.19 12.11C12.49 12.11 12.77 12.15 13.04 12.23C13.32 12.3 13.56 12.41 13.76 12.55Q13.92 12.67 14.05 12.82Q14.15 12.94 14.24 13.08C14.35 13.29 14.41 13.53 14.41 13.81Q14.41 14.24 14.22 14.56Q14.22 14.56 14.22 14.56C14.1 14.76 13.94 14.93 13.73 15.07C13.52 15.2 13.27 15.3 12.98 15.37C12.7 15.43 12.41 15.45 12.1 15.45L11.48 15.45Q11.19 15.45 11.07 15.44L11.07 16.58C11.15 16.57 11.28 16.56 11.48 16.56L12.1 16.56Q12.65 16.56 13.1 16.67Q13.56 16.77 13.89 16.98C14.11 17.12 14.28 17.3 14.4 17.53C14.52 17.75 14.58 18.02 14.58 18.33Q14.58 18.84 14.36 19.23Q14.21 19.5 13.95 19.7Q13.34 20.19 12.25 20.19Q11.4 20.19 10.7 19.87Q10.66 19.85 10.62 19.84C10.14 19.59 9.75 19.27 9.47 18.88L8.73 19.66Q9.2 20.33 10.09 20.82ZM22.45 12.26L18.43 21.12L19.81 21.12L23.89 12L23.89 11.15L17.09 11.15L17.09 12.26L22.45 12.26Z" fill="#D3D3D3" fill-opacity="1.000000" fill-rule="evenodd"/>
	<rect id="Rectangle 56" x="41.531250" rx="6.644777" width="33.223885" height="33.223885" fill="#FFFFFF" fill-opacity="1.000000"/>
	<rect id="Rectangle 56" x="41.946289" y="0.416016" rx="6.644777" width="32.393288" height="32.393288" stroke="#D3D3D3" stroke-opacity="1.000000" stroke-width="0.830597"/>
	<path id="38" d="M51.63 20.82C52.23 21.14 52.96 21.3 53.81 21.3C54.36 21.3 54.85 21.23 55.29 21.09C55.73 20.94 56.1 20.74 56.39 20.49C56.7 20.23 56.94 19.93 57.1 19.58C57.26 19.23 57.34 18.85 57.34 18.43Q57.34 17.83 57.1 17.38C56.95 17.08 56.76 16.84 56.53 16.64C56.3 16.44 56.05 16.28 55.78 16.17C55.51 16.06 55.26 16 55.03 15.98C55.27 15.94 55.52 15.86 55.77 15.75C56.03 15.63 56.26 15.48 56.47 15.29Q56.51 15.26 56.55 15.22Q56.81 14.96 56.98 14.6C57.12 14.33 57.19 14.02 57.19 13.66Q57.19 13.07 56.95 12.61Q56.94 12.57 56.92 12.54C56.75 12.2 56.51 11.92 56.21 11.7C55.92 11.47 55.56 11.3 55.14 11.18Q54.53 11 53.81 11Q52.64 11 51.79 11.45C51.22 11.74 50.76 12.1 50.4 12.54L51.09 13.32Q51.64 12.72 52.27 12.42Q52.9 12.11 53.72 12.11C54.02 12.11 54.3 12.15 54.57 12.23C54.85 12.3 55.09 12.41 55.29 12.55Q55.45 12.67 55.58 12.82Q55.69 12.94 55.77 13.08C55.89 13.29 55.95 13.53 55.95 13.81Q55.95 14.24 55.75 14.56Q55.75 14.56 55.75 14.56C55.63 14.76 55.47 14.93 55.26 15.07C55.05 15.2 54.8 15.3 54.51 15.37C54.23 15.43 53.94 15.45 53.63 15.45L53.02 15.45Q52.72 15.45 52.6 15.44L52.6 16.58C52.68 16.57 52.82 16.56 53.02 16.56L53.63 16.56Q54.18 16.56 54.63 16.67Q55.09 16.77 55.42 16.98C55.64 17.12 55.81 17.3 55.93 17.53C56.05 17.75 56.11 18.02 56.11 18.33Q56.11 18.84 55.89 19.23Q55.74 19.5 55.48 19.7Q54.87 20.19 53.78 20.19Q52.93 20.19 52.23 19.87Q52.19 19.85 52.15 19.84C51.67 19.59 51.29 19.27 51 18.88L50.26 19.66Q50.73 20.33 51.63 20.82ZM61.1 21.12Q61.76 21.3 62.5 21.3C62.99 21.3 63.45 21.24 63.88 21.12Q64.54 20.93 65.02 20.58C65.34 20.35 65.6 20.07 65.79 19.73Q65.85 19.62 65.9 19.51Q66.08 19.09 66.08 18.59C66.08 18.27 66.01 17.96 65.88 17.68C65.75 17.4 65.58 17.15 65.36 16.94C65.14 16.71 64.89 16.51 64.6 16.35C64.31 16.19 64.01 16.07 63.7 15.98C63.99 15.9 64.27 15.79 64.54 15.65C64.81 15.51 65.04 15.35 65.24 15.16C65.45 14.96 65.61 14.73 65.73 14.47C65.86 14.21 65.93 13.92 65.93 13.59Q65.93 12.94 65.64 12.47Q65.63 12.45 65.61 12.43Q65.48 12.22 65.32 12.04Q65.1 11.81 64.82 11.63C64.5 11.41 64.14 11.25 63.73 11.15C63.32 11.05 62.91 11 62.5 11Q62.24 11 61.98 11.03Q61.62 11.06 61.26 11.15C60.86 11.25 60.5 11.41 60.17 11.63C59.85 11.84 59.59 12.11 59.39 12.43C59.19 12.75 59.1 13.14 59.1 13.59C59.1 13.92 59.15 14.21 59.27 14.47Q59.42 14.77 59.63 15.01Q59.7 15.09 59.77 15.16C59.98 15.35 60.21 15.51 60.47 15.65C60.74 15.79 61.02 15.9 61.31 15.98C61 16.07 60.7 16.19 60.41 16.35C60.12 16.51 59.87 16.71 59.65 16.94C59.43 17.15 59.25 17.4 59.12 17.68C59 17.96 58.93 18.27 58.93 18.59Q58.93 19.16 59.15 19.62Q59.18 19.68 59.21 19.75Q59.27 19.84 59.34 19.94Q59.59 20.31 59.98 20.6C60.3 20.83 60.67 21 61.1 21.12ZM63.1 15.34C62.85 15.4 62.65 15.44 62.5 15.47C62.35 15.44 62.16 15.4 61.91 15.34C61.67 15.27 61.43 15.17 61.19 15.04C60.96 14.9 60.76 14.72 60.59 14.51C60.42 14.3 60.34 14.05 60.34 13.75C60.34 13.49 60.39 13.26 60.5 13.06C60.62 12.85 60.77 12.68 60.96 12.54C61.16 12.4 61.39 12.3 61.65 12.23C61.92 12.15 62.2 12.11 62.5 12.11Q62.95 12.11 63.34 12.23C63.61 12.3 63.84 12.4 64.03 12.54C64.23 12.68 64.38 12.85 64.49 13.06C64.61 13.26 64.67 13.49 64.67 13.75Q64.67 14.08 64.54 14.33Q64.49 14.43 64.42 14.51C64.25 14.72 64.05 14.9 63.82 15.04C63.59 15.17 63.35 15.27 63.1 15.34ZM63.39 20.07C63.11 20.15 62.81 20.19 62.5 20.19Q62.08 20.19 61.68 20.09Q61.65 20.09 61.61 20.07C61.33 20 61.08 19.88 60.86 19.73C60.65 19.58 60.48 19.4 60.35 19.19C60.23 18.97 60.17 18.73 60.17 18.46C60.17 18.13 60.26 17.85 60.44 17.62C60.63 17.38 60.85 17.19 61.1 17.04C61.36 16.88 61.62 16.76 61.88 16.68C62.15 16.6 62.35 16.55 62.5 16.53C62.65 16.55 62.86 16.6 63.12 16.68C63.39 16.76 63.65 16.88 63.89 17.04C64.14 17.19 64.36 17.38 64.54 17.62C64.73 17.85 64.82 18.13 64.82 18.46C64.82 18.73 64.76 18.97 64.63 19.19C64.51 19.4 64.34 19.58 64.12 19.73C63.91 19.88 63.67 20 63.39 20.07Z" fill="#D3D3D3" fill-opacity="1.000000" fill-rule="evenodd"/>
	<rect id="Rectangle 63" x="332.242188" rx="6.644777" width="33.223885" height="33.223885" fill="#FFFFFF" fill-opacity="1.000000"/>
	<rect id="Rectangle 63" x="332.657227" y="0.416016" rx="6.644777" width="32.393288" height="32.393288" stroke="#DCBB45" stroke-opacity="1.000000" stroke-width="0.830597"/>
	<path id="45" d="M345.76 18.59L345.76 21.12L347 21.12L347 18.59L348.41 18.59L348.41 17.5L347 17.5L347 11.15L345.3 11.15L341.02 17.56L341.02 18.59L345.76 18.59ZM351.27 20.88C351.83 21.16 352.53 21.3 353.38 21.3Q354.13 21.3 354.77 21.08C355.21 20.93 355.59 20.71 355.91 20.43C356.22 20.14 356.47 19.8 356.65 19.39C356.83 18.98 356.92 18.52 356.92 18.01C356.92 17.5 356.83 17.05 356.65 16.65C356.48 16.25 356.25 15.92 355.95 15.65C355.66 15.38 355.33 15.18 354.95 15.04C354.57 14.9 354.17 14.83 353.75 14.83Q352.99 14.83 352.38 15.1Q351.78 15.37 351.42 15.72L351.42 12.26L356.28 12.26L356.28 11.15L350.18 11.15L350.18 16.53L351.09 16.85Q351.6 16.35 352.15 16.13Q352.72 15.9 353.39 15.9C353.73 15.9 354.04 15.95 354.32 16.05C354.6 16.15 354.84 16.3 355.04 16.49C355.24 16.68 355.39 16.91 355.5 17.17C355.62 17.43 355.68 17.73 355.68 18.06C355.68 18.36 355.62 18.64 355.5 18.91C355.39 19.17 355.24 19.39 355.04 19.58C354.84 19.77 354.6 19.92 354.31 20.03C354.03 20.14 353.72 20.19 353.38 20.19C352.76 20.19 352.23 20.08 351.78 19.85C351.34 19.62 350.96 19.3 350.63 18.88L349.87 19.7C350.24 20.2 350.71 20.59 351.27 20.88ZM342.26 17.5L345.76 12.3L345.76 17.5L342.26 17.5Z" fill="#DCBB45" fill-opacity="1.000000" fill-rule="evenodd"/>
	<rect id="Rectangle 64" x="373.773438" rx="6.644777" width="33.223885" height="33.223885" fill="#FFFFFF" fill-opacity="1.000000"/>
	<rect id="Rectangle 64" x="374.188477" y="0.416016" rx="6.644777" width="32.393288" height="32.393288" stroke="#D3D3D3" stroke-opacity="1.000000" stroke-width="0.830597"/>
	<path id="46" d="M393.24 20.88C393.72 21.16 394.32 21.3 395.02 21.3C395.56 21.3 396.05 21.22 396.48 21.05Q397.14 20.78 397.59 20.33C397.89 20.03 398.12 19.69 398.27 19.3C398.43 18.9 398.51 18.48 398.51 18.04C398.51 17.51 398.43 17.05 398.26 16.65C398.09 16.25 397.86 15.92 397.56 15.66C397.26 15.4 396.91 15.2 396.51 15.07C396.12 14.93 395.7 14.86 395.25 14.86C394.94 14.86 394.63 14.91 394.33 15.01C394.04 15.11 393.77 15.23 393.52 15.38C393.27 15.53 393.05 15.7 392.86 15.89C392.68 16.07 392.54 16.24 392.43 16.41C392.42 16.34 392.41 16.28 392.41 16.22L392.41 16.02Q392.41 15.45 392.51 14.89Q392.54 14.74 392.58 14.59C392.69 14.12 392.86 13.7 393.09 13.33C393.33 12.96 393.62 12.67 393.97 12.45C394.33 12.22 394.75 12.11 395.22 12.11Q396.02 12.11 396.5 12.39C396.81 12.58 397.1 12.82 397.36 13.12L397.99 12.2C397.68 11.85 397.3 11.56 396.85 11.34C396.42 11.11 395.87 11 395.22 11Q394.18 11 393.42 11.43C392.91 11.71 392.48 12.09 392.14 12.57C391.82 13.04 391.57 13.59 391.41 14.21C391.25 14.83 391.17 15.48 391.17 16.16Q391.17 17.17 391.38 18.1C391.52 18.72 391.74 19.27 392.04 19.75C392.35 20.21 392.75 20.59 393.24 20.88ZM387.29 18.59L387.29 21.12L388.53 21.12L388.53 18.59L389.94 18.59L389.94 17.5L388.53 17.5L388.53 11.15L386.83 11.15L382.55 17.56L382.55 18.59L387.29 18.59ZM383.79 17.5L387.29 12.3L387.29 17.5L383.79 17.5ZM395.97 20C395.69 20.13 395.36 20.19 394.97 20.19C394.53 20.19 394.16 20.11 393.85 19.94C393.55 19.77 393.3 19.55 393.1 19.28Q392.82 18.88 392.65 18.39C392.55 18.06 392.49 17.74 392.46 17.43Q392.72 17.01 393.07 16.69Q393.29 16.5 393.54 16.35C393.98 16.07 394.46 15.93 394.96 15.93Q395.43 15.93 395.85 16.07C396.13 16.15 396.38 16.28 396.59 16.46C396.79 16.64 396.96 16.86 397.08 17.13C397.2 17.4 397.26 17.72 397.26 18.09C397.26 18.33 397.21 18.57 397.11 18.82C397.02 19.07 396.88 19.3 396.69 19.51Q396.41 19.81 395.97 20Z" fill="#D3D3D3" fill-opacity="1.000000" fill-rule="evenodd"/>
	<rect id="Rectangle 57" x="83.477539" y="0.416016" rx="6.644777" width="32.393288" height="32.393288" stroke="#DCBB45" stroke-opacity="1.000000" stroke-width="0.830597"/>
	<path id="39" d="M102.08 20.96C102.53 21.18 103.07 21.29 103.71 21.29Q104.75 21.29 105.52 20.87C106.02 20.58 106.44 20.2 106.77 19.73C107.11 19.25 107.36 18.7 107.52 18.09C107.68 17.47 107.76 16.82 107.76 16.14Q107.76 15.13 107.55 14.2C107.41 13.57 107.19 13.02 106.88 12.55Q106.62 12.16 106.28 11.85Q106.01 11.6 105.68 11.42C105.19 11.13 104.6 10.98 103.9 10.98Q103.09 10.98 102.44 11.25C102.01 11.43 101.64 11.67 101.34 11.97C101.05 12.27 100.82 12.62 100.66 13.02C100.5 13.41 100.42 13.82 100.42 14.24Q100.42 15.04 100.67 15.63C100.85 16.03 101.09 16.37 101.37 16.64C101.67 16.9 102.02 17.09 102.42 17.23C102.82 17.36 103.24 17.43 103.69 17.43C104.01 17.43 104.31 17.38 104.6 17.28C104.89 17.18 105.16 17.05 105.41 16.91Q105.78 16.68 106.05 16.41Q106.34 16.13 106.5 15.87C106.51 15.94 106.52 16.01 106.52 16.08L106.52 16.28Q106.52 16.98 106.35 17.68C106.25 18.15 106.09 18.57 105.86 18.94C105.64 19.31 105.35 19.61 104.99 19.84C104.64 20.06 104.21 20.18 103.71 20.18Q102.93 20.18 102.44 19.9C102.12 19.71 101.83 19.46 101.57 19.16L100.94 20.09C101.26 20.45 101.64 20.74 102.08 20.96ZM93.16 20.82C93.76 21.14 94.49 21.3 95.34 21.3C95.89 21.3 96.38 21.23 96.82 21.09C97.26 20.94 97.63 20.74 97.93 20.49C98.23 20.23 98.47 19.93 98.63 19.58C98.79 19.23 98.87 18.85 98.87 18.43Q98.87 17.83 98.63 17.38C98.48 17.08 98.29 16.84 98.06 16.64C97.83 16.44 97.58 16.28 97.31 16.17C97.04 16.06 96.79 16 96.57 15.98C96.8 15.94 97.05 15.86 97.3 15.75C97.56 15.63 97.79 15.48 98 15.29Q98.04 15.26 98.08 15.22Q98.34 14.96 98.51 14.6C98.65 14.33 98.72 14.02 98.72 13.66Q98.72 13.07 98.48 12.61Q98.47 12.57 98.45 12.54C98.28 12.2 98.05 11.92 97.75 11.7C97.45 11.47 97.09 11.3 96.67 11.18Q96.06 11 95.34 11Q94.17 11 93.32 11.45C92.75 11.74 92.29 12.1 91.93 12.54L92.62 13.32Q93.17 12.72 93.8 12.42Q94.43 12.11 95.25 12.11C95.55 12.11 95.83 12.15 96.1 12.23C96.38 12.3 96.62 12.41 96.82 12.55Q96.98 12.67 97.11 12.82Q97.22 12.94 97.3 13.08C97.42 13.29 97.48 13.53 97.48 13.81Q97.48 14.24 97.28 14.56Q97.28 14.56 97.28 14.56C97.16 14.76 97 14.93 96.79 15.07C96.58 15.2 96.33 15.3 96.04 15.37C95.76 15.43 95.47 15.45 95.16 15.45L94.55 15.45Q94.25 15.45 94.13 15.44L94.13 16.58C94.21 16.57 94.35 16.56 94.55 16.56L95.16 16.56Q95.71 16.56 96.16 16.67Q96.62 16.77 96.95 16.98C97.17 17.12 97.34 17.3 97.46 17.53C97.58 17.75 97.64 18.02 97.64 18.33Q97.64 18.84 97.42 19.23Q97.27 19.5 97.01 19.7Q96.4 20.19 95.31 20.19Q94.46 20.19 93.76 19.87Q93.72 19.85 93.68 19.84C93.2 19.59 92.82 19.27 92.53 18.88L91.8 19.66Q92.26 20.33 93.16 20.82ZM104.46 16.31Q104.22 16.35 103.98 16.35C103.66 16.35 103.36 16.31 103.08 16.23C102.8 16.14 102.56 16.01 102.35 15.83C102.14 15.65 101.97 15.43 101.85 15.16C101.73 14.89 101.67 14.57 101.67 14.2Q101.67 13.84 101.81 13.47C101.91 13.22 102.05 12.99 102.24 12.79C102.43 12.58 102.67 12.41 102.96 12.29C103.25 12.16 103.58 12.09 103.96 12.09C104.39 12.09 104.76 12.18 105.07 12.36C105.38 12.53 105.63 12.75 105.81 13.02C106.01 13.29 106.16 13.59 106.26 13.92C106.36 14.24 106.43 14.56 106.46 14.87Q106.28 15.18 106.04 15.44Q105.76 15.73 105.4 15.95Q104.95 16.22 104.46 16.31Z" fill="#DCBB45" fill-opacity="1.000000" fill-rule="evenodd"/>
	<rect id="Rectangle 58" x="124.993164" y="0.416016" rx="6.644777" width="32.393288" height="32.393288" stroke="#DCBB45" stroke-opacity="1.000000" stroke-width="0.830597"/>
	<path id="40" d="M144.04 20.84C144.52 21.15 145.1 21.3 145.79 21.3Q146.81 21.3 147.52 20.84L147.52 20.84C148.01 20.53 148.41 20.13 148.71 19.64C149.01 19.14 149.24 18.59 149.38 17.98C149.53 17.36 149.6 16.75 149.6 16.14Q149.6 15.23 149.38 14.32C149.24 13.7 149.01 13.15 148.71 12.66C148.41 12.17 148.01 11.77 147.52 11.46C147.05 11.15 146.47 11 145.79 11Q144.76 11 144.04 11.46C143.56 11.77 143.17 12.17 142.86 12.66C142.55 13.15 142.33 13.7 142.19 14.32C142.05 14.93 141.98 15.53 141.98 16.14C141.98 16.75 142.05 17.36 142.19 17.98C142.33 18.59 142.55 19.14 142.86 19.64C143.17 20.13 143.56 20.53 144.04 20.84ZM138.1 18.59L138.1 21.12L139.34 21.12L139.34 18.59L140.74 18.59L140.74 17.5L139.34 17.5L139.34 11.15L137.63 11.15L133.36 17.56L133.36 18.59L138.1 18.59ZM146.99 19.85C146.67 20.08 146.27 20.19 145.79 20.19Q145.1 20.19 144.62 19.88Q144.6 19.87 144.58 19.85C144.26 19.61 144 19.3 143.8 18.92Q143.5 18.34 143.37 17.62C143.29 17.13 143.25 16.64 143.25 16.14Q143.25 15.4 143.37 14.68C143.46 14.19 143.6 13.76 143.8 13.38C144 13 144.26 12.69 144.58 12.46C144.91 12.23 145.31 12.11 145.79 12.11C146.27 12.11 146.67 12.23 146.99 12.46C147.32 12.69 147.58 13 147.78 13.38C147.98 13.76 148.12 14.19 148.2 14.68C148.29 15.16 148.33 15.64 148.33 16.14Q148.33 16.6 148.28 17.05Q148.25 17.34 148.2 17.62C148.12 18.1 147.98 18.53 147.78 18.92C147.58 19.3 147.32 19.61 146.99 19.85ZM134.6 17.5L138.1 12.3L138.1 17.5L134.6 17.5Z" fill="#DCBB45" fill-opacity="1.000000" fill-rule="evenodd"/>
	<rect id="Rectangle 59" x="166.540039" y="0.416016" rx="6.644777" width="32.393288" height="32.393288" stroke="#DCBB45" stroke-opacity="1.000000" stroke-width="0.830597"/>
	<path id="41" d="M179.64 18.59L179.64 21.12L180.88 21.12L180.88 18.59L182.29 18.59L182.29 17.5L180.88 17.5L180.88 11.15L179.18 11.15L174.9 17.56L174.9 18.59L179.64 18.59ZM185.42 12.79L185.42 21.12L186.66 21.12L186.66 11.15L185.57 11.15L183.08 13.72L183.82 14.48L185.42 12.79ZM176.14 17.5L179.64 12.3L179.64 17.5L176.14 17.5Z" fill="#DCBB45" fill-opacity="1.000000" fill-rule="evenodd"/>
	<rect id="Rectangle 60" x="208.063477" y="0.416016" rx="6.644777" width="32.393288" height="32.393288" stroke="#DCBB45" stroke-opacity="1.000000" stroke-width="0.830597"/>
	<path id="42" d="M225.09 20.13L225.09 21.12L231.94 21.12L231.94 20.01L227.05 20.01Q228.1 19.19 228.98 18.43Q229.86 17.65 230.5 16.92C230.94 16.42 231.28 15.93 231.52 15.44C231.77 14.94 231.9 14.44 231.9 13.93Q231.9 13.18 231.6 12.63C231.41 12.26 231.15 11.96 230.83 11.72Q230.82 11.7 230.8 11.69Q230.35 11.35 229.77 11.18C229.37 11.06 228.96 11 228.55 11Q227.71 11 226.96 11.25Q226.75 11.32 226.56 11.4C225.95 11.67 225.46 12.06 225.08 12.57L225.84 13.36C226.13 12.98 226.5 12.68 226.96 12.45C227.42 12.22 227.95 12.11 228.55 12.11Q228.75 12.11 228.95 12.13Q229.13 12.16 229.31 12.21C229.56 12.28 229.78 12.39 229.97 12.54C230.17 12.69 230.33 12.88 230.45 13.11C230.56 13.34 230.62 13.61 230.62 13.93C230.62 14.36 230.5 14.79 230.27 15.23Q229.91 15.87 229.2 16.62C228.74 17.11 228.16 17.64 227.47 18.22C226.78 18.79 225.99 19.43 225.09 20.13ZM221.17 18.59L221.17 21.12L222.41 21.12L222.41 18.59L223.81 18.59L223.81 17.5L222.41 17.5L222.41 11.15L220.7 11.15L216.43 17.56L216.43 18.59L221.17 18.59ZM217.67 17.5L221.17 12.3L221.17 17.5L217.67 17.5Z" fill="#DCBB45" fill-opacity="1.000000" fill-rule="evenodd"/>
	<rect id="Rectangle 61" x="249.602539" y="0.416016" rx="6.644777" width="32.393288" height="32.393288" stroke="#DCBB45" stroke-opacity="1.000000" stroke-width="0.830597"/>
	<path id="43" d="M267.62 20.82C268.23 21.14 268.95 21.3 269.8 21.3C270.35 21.3 270.84 21.23 271.28 21.09C271.72 20.94 272.09 20.74 272.39 20.49C272.7 20.23 272.93 19.93 273.09 19.58C273.25 19.23 273.33 18.85 273.33 18.43Q273.33 17.83 273.09 17.38C272.94 17.08 272.75 16.84 272.52 16.64C272.29 16.44 272.04 16.28 271.77 16.17C271.51 16.06 271.26 16 271.03 15.98C271.27 15.94 271.51 15.86 271.76 15.75C272.02 15.63 272.25 15.48 272.46 15.29C272.67 15.1 272.84 14.87 272.97 14.6C273.11 14.33 273.18 14.02 273.18 13.66Q273.18 13.07 272.95 12.61Q272.93 12.57 272.91 12.54C272.74 12.2 272.51 11.92 272.21 11.7C271.91 11.47 271.55 11.3 271.13 11.18Q270.52 11 269.8 11Q268.64 11 267.78 11.45C267.21 11.74 266.75 12.1 266.39 12.54L267.08 13.32Q267.63 12.72 268.26 12.42Q268.89 12.11 269.71 12.11C270.01 12.11 270.29 12.15 270.56 12.23C270.84 12.3 271.08 12.41 271.28 12.55C271.48 12.69 271.64 12.87 271.76 13.08C271.88 13.29 271.94 13.53 271.94 13.81Q271.94 14.24 271.75 14.56Q271.75 14.56 271.74 14.56C271.63 14.76 271.46 14.93 271.25 15.07C271.04 15.2 270.79 15.3 270.5 15.37C270.22 15.43 269.93 15.45 269.62 15.45L269.01 15.45C268.81 15.45 268.67 15.45 268.59 15.44L268.59 16.58C268.67 16.57 268.81 16.56 269.01 16.56L269.62 16.56Q270.18 16.56 270.62 16.67Q271.09 16.77 271.42 16.98C271.64 17.12 271.8 17.3 271.92 17.53C272.04 17.75 272.1 18.02 272.1 18.33Q272.1 18.84 271.88 19.23Q271.73 19.5 271.48 19.7Q270.86 20.19 269.77 20.19C269.17 20.19 268.63 20.07 268.14 19.84C267.66 19.59 267.28 19.27 266.99 18.88L266.26 19.66C266.57 20.1 267.02 20.49 267.62 20.82ZM262.71 18.59L262.71 21.12L263.95 21.12L263.95 18.59L265.35 18.59L265.35 17.5L263.95 17.5L263.95 11.15L262.24 11.15L257.97 17.56L257.97 18.59L262.71 18.59ZM259.21 17.5L262.71 12.3L262.71 17.5L259.21 17.5Z" fill="#DCBB45" fill-opacity="1.000000" fill-rule="evenodd"/>
	<rect id="Rectangle 62" x="291.110352" y="0.416016" rx="6.644777" width="32.393288" height="32.393288" stroke="#DCBB45" stroke-opacity="1.000000" stroke-width="0.830597"/>
	<path id="44" d="M304.21 18.59L304.21 21.12L305.45 21.12L305.45 18.59L306.86 18.59L306.86 17.5L305.45 17.5L305.45 11.15L303.75 11.15L299.47 17.56L299.47 18.59L304.21 18.59ZM312.55 18.59L312.55 21.12L313.79 21.12L313.79 18.59L315.2 18.59L315.2 17.5L313.79 17.5L313.79 11.15L312.09 11.15L307.81 17.56L307.81 18.59L312.55 18.59ZM300.71 17.5L304.21 12.3L304.21 17.5L300.71 17.5ZM309.05 17.5L312.55 12.3L312.55 17.5L309.05 17.5Z" fill="#DCBB45" fill-opacity="1.000000" fill-rule="evenodd"/>
</svg>
