<svg width="17.000000" height="17.000000" viewBox="0 0 17 17" fill="none" xmlns="http://www.w3.org/2000/svg" xmlns:xlink="http://www.w3.org/1999/xlink">
	<desc>
			Created with Pixso.
	</desc>
	<defs/>
	<path id="Vector" d="M15.44 13.4C15.03 12.44 14.45 11.57 13.71 10.83C12.97 10.09 12.1 9.51 11.14 9.1C11.13 9.1 11.12 9.09 11.11 9.09C12.45 8.12 13.32 6.55 13.32 4.77C13.32 1.83 10.94 -0.56 8 -0.56C5.05 -0.56 2.67 1.83 2.67 4.77C2.67 6.55 3.54 8.12 4.88 9.09C4.87 9.1 4.86 9.1 4.85 9.1C3.89 9.51 3.02 10.09 2.28 10.83C1.54 11.57 0.96 12.44 0.55 13.4C0.15 14.34 -0.06 15.35 -0.08 16.37C-0.08 16.39 -0.08 16.41 -0.07 16.44C-0.06 16.46 -0.05 16.48 -0.03 16.49C-0.02 16.51 0 16.52 0.02 16.53C0.04 16.54 0.07 16.55 0.09 16.55L1.38 16.55C1.47 16.55 1.55 16.47 1.55 16.38C1.59 14.72 2.26 13.17 3.44 11.99C4.65 10.77 6.27 10.1 8 10.1C9.72 10.1 11.34 10.77 12.55 11.99C13.73 13.17 14.4 14.72 14.44 16.38C14.44 16.47 14.52 16.55 14.61 16.55L15.9 16.55C15.92 16.55 15.95 16.54 15.97 16.53C15.99 16.52 16.01 16.51 16.02 16.49C16.04 16.48 16.05 16.46 16.06 16.44C16.07 16.41 16.07 16.39 16.07 16.37C16.05 15.34 15.84 14.34 15.44 13.4ZM8 8.47C7.01 8.47 6.08 8.08 5.38 7.39C4.68 6.69 4.3 5.76 4.3 4.77C4.3 3.79 4.68 2.86 5.38 2.16C6.08 1.46 7.01 1.08 8 1.08C8.98 1.08 9.91 1.46 10.61 2.16C11.31 2.86 11.69 3.79 11.69 4.77C11.69 5.76 11.31 6.69 10.61 7.39C9.91 8.08 8.98 8.47 8 8.47Z" fill="#7C7C7C" fill-opacity="1.000000" fill-rule="nonzero"/>
</svg>
