<svg width="30.000000" height="30.000000" viewBox="0 0 30 30" fill="none" xmlns="http://www.w3.org/2000/svg" xmlns:xlink="http://www.w3.org/1999/xlink">
	<desc>
			Created with Pixso.
	</desc>
	<defs/>
	<path id="Vector" d="M20.03 15.91C23.93 12.84 24.61 7.19 21.53 3.29C18.46 -0.62 12.81 -1.29 8.91 1.78C5 4.85 4.34 10.5 7.4 14.4C7.84 14.96 8.35 15.47 8.91 15.91C3.78 17.96 0.2 22.67 -0.41 28.16C-0.5 28.99 0.1 29.74 0.92 29.83C1.75 29.91 2.5 29.32 2.59 28.49C3.32 21.92 9.26 17.18 15.83 17.92C21.39 18.54 25.78 22.93 26.41 28.49C26.49 29.25 27.14 29.83 27.91 29.83L28.07 29.83C28.89 29.73 29.48 29 29.39 28.17C28.78 22.67 25.18 17.96 20.03 15.91ZM14.47 14.84C11.16 14.84 8.48 12.16 8.48 8.85C8.48 5.55 11.16 2.86 14.47 2.86C17.78 2.86 20.46 5.55 20.46 8.85C20.46 12.16 17.78 14.84 14.47 14.84Z" fill="#FFFFFF" fill-opacity="1.000000" fill-rule="nonzero"/>
</svg>


