<svg width="50.000000" height="50.000000" viewBox="0 0 50 50" fill="none" xmlns="http://www.w3.org/2000/svg" xmlns:xlink="http://www.w3.org/1999/xlink">
	<desc>
			Created with Pixso.
	</desc>
	<defs/>
	<circle id="Ellipse 8" cx="25.000000" cy="25.000000" r="25.000000" fill="#C9A95C" fill-opacity="1.000000"/>
	<path id="Icon" d="M35.72 14.87L15 14.87L13.23 11.7C13.03 11.34 12.65 11.12 12.25 11.12L10 11.12C9.37 11.12 8.87 11.62 8.87 12.25C8.87 12.87 9.37 13.37 10 13.37L11.58 13.37L13.33 16.5L17.36 25.42L17.37 25.42L17.72 26.21L13.67 30.53C13.38 30.84 13.29 31.28 13.44 31.68C13.59 32.08 13.95 32.36 14.37 32.41L18.05 32.83C22.67 33.36 27.32 33.36 31.94 32.83L35.62 32.41C36.24 32.34 36.68 31.78 36.61 31.17C36.54 30.55 35.98 30.11 35.37 30.18L31.68 30.6C27.24 31.11 22.75 31.11 18.31 30.6L16.85 30.43L19.82 27.26C19.84 27.23 19.87 27.2 19.9 27.17L21.03 27.32C22.61 27.52 24.21 27.56 25.8 27.44C29.51 27.14 32.95 25.38 35.35 22.53L36.21 21.51C36.24 21.47 36.27 21.44 36.29 21.4L37.91 18.93C39.06 17.19 37.8 14.87 35.72 14.87ZM19.98 24.91C19.73 24.88 19.52 24.72 19.41 24.5L19.41 24.49L16.08 17.12L35.72 17.12C36.01 17.12 36.19 17.45 36.03 17.7L34.45 20.11L33.63 21.08C31.62 23.47 28.73 24.95 25.62 25.19C24.19 25.31 22.74 25.27 21.32 25.08L19.98 24.91ZM16.75 34.75C15.5 34.75 14.5 35.75 14.5 37C14.5 38.24 15.5 39.25 16.75 39.25C17.99 39.25 19 38.24 19 37C19 35.75 17.99 34.75 16.75 34.75ZM33.25 34.75C32 34.75 31 35.75 31 37C31 38.24 32 39.25 33.25 39.25C34.49 39.25 35.5 38.24 35.5 37C35.5 35.75 34.49 34.75 33.25 34.75Z" fill="#000000" fill-opacity="1.000000" fill-rule="evenodd"/>
</svg>
