<svg width="15.000000" height="18.000000" viewBox="0 0 15 18" fill="none" xmlns="http://www.w3.org/2000/svg" xmlns:xlink="http://www.w3.org/1999/xlink">
	<desc>
			Created with Pixso.
	</desc>
	<defs/>
	<path id="Vector" d="M12 5.66L13.66 5.66C13.88 5.66 14.09 5.75 14.25 5.91C14.41 6.06 14.5 6.27 14.5 6.5L14.5 16.5C14.5 16.72 14.41 16.93 14.25 17.08C14.09 17.24 13.88 17.33 13.66 17.33L0.33 17.33C0.11 17.33 -0.1 17.24 -0.26 17.08C-0.42 16.93 -0.5 16.72 -0.5 16.5L-0.5 6.5C-0.5 6.27 -0.42 6.06 -0.26 5.91C-0.1 5.75 0.11 5.66 0.33 5.66L2 5.66L2 4.83C2 3.5 2.52 2.23 3.46 1.29C4.4 0.36 5.67 -0.17 7 -0.17C8.32 -0.17 9.59 0.36 10.53 1.29C11.47 2.23 12 3.5 12 4.83L12 5.66ZM1.16 7.33L1.16 15.66L12.83 15.66L12.83 7.33L1.16 7.33ZM6.16 10.66L7.83 10.66L7.83 12.33L6.16 12.33L6.16 10.66ZM2.83 10.66L4.5 10.66L4.5 12.33L2.83 12.33L2.83 10.66ZM9.5 10.66L11.16 10.66L11.16 12.33L9.5 12.33L9.5 10.66ZM10.33 5.66L10.33 4.83C10.33 3.94 9.98 3.1 9.35 2.47C8.73 1.85 7.88 1.5 7 1.5C6.11 1.5 5.26 1.85 4.64 2.47C4.01 3.1 3.66 3.94 3.66 4.83L3.66 5.66L10.33 5.66Z" fill="#AFB4BB" fill-opacity="0.700000" fill-rule="nonzero"/>
</svg>
