<svg width="231.000000" height="34.000000" viewBox="0 0 231 34" fill="none" xmlns="http://www.w3.org/2000/svg" xmlns:xlink="http://www.w3.org/1999/xlink">
	<desc>
			Created with Pixso.
	</desc>
	<defs/>
	<path id="Vector" d="M0 10.36C0 20.9 15.22 20.33 15.22 27.72C15.24 28.25 15.15 28.78 14.96 29.27C14.76 29.76 14.47 30.21 14.1 30.58C13.72 30.96 13.27 31.25 12.78 31.44C12.29 31.64 11.76 31.73 11.23 31.71C5.63 31.71 2.9 26.56 2.9 24.2C2.85 23.22 2.73 22.25 2.53 21.28L0.79 21.28C0.99 23.19 1.19 25.11 1.19 27.11C1.19 28.97 1.01 30.89 0.82 32.75L2.54 32.75L2.67 30.95C4.34 31.51 7.02 33 11.93 33C21 33 25.11 28.97 25.11 22.7C25.11 11.1 9.33 12.59 9.33 5.21C9.33 3.22 10.19 1.3 13.8 1.3C19.89 1.3 21.5 7.68 21.5 9.67C21.49 9.78 21.51 9.89 21.57 9.99C21.63 10.67 21.69 11.35 21.82 12.03L23.62 12.03C23.34 10.12 23.19 8.19 23.16 6.26C23.16 4.83 23.29 3.47 23.41 2.04L23.41 1.92L23.6 0.55L21.81 0.55L21.74 1.24C18.99 0.37 16.12 -0.05 13.23 0C3.91 0 0 4.02 0 10.36ZM231 15.38L231 14.69C230.25 5.95 225.83 0.31 217.01 0L216.21 0C206.51 0.43 200.48 6.69 200.48 16.49C200.48 26.48 206.82 32.75 217.01 32.75C227.45 32.75 230.06 23.69 230.06 23.69L229.19 23.12C229.19 23.12 226.02 30.38 218.75 30.38C213.47 30.38 212.6 27.65 212.6 16.48L212.6 15.36L231 15.38ZM216.7 1.43C219.31 1.62 220.12 3.97 220.24 13.9L212.6 13.9C212.78 3.98 213.9 1.61 216.7 1.42L216.7 1.43ZM195.53 30.5L195.53 10.84C195.53 3.71 192.11 -0.07 186.21 -0.07C180.74 -0.07 177.02 3.16 175.02 5.76L175.02 0.24L173.9 0.24C170.61 1.44 167.26 1.67 163.96 1.67C162.84 1.67 161.66 1.67 160.55 1.61L160.55 3.2C161.39 3.33 162.24 3.39 163.09 3.39L163.09 30.55L160.61 30.74L160.61 32.36C166.27 31.87 171.97 31.87 177.63 32.36L177.63 30.74C176.76 30.68 175.89 30.55 175.03 30.55L175.03 6.99C176.02 5.95 177.82 4.4 180.31 4.4C182.61 4.4 183.54 5.89 183.54 7.8L183.54 30.55L181.18 30.74L181.18 32.37C186.84 31.88 192.54 31.88 198.21 32.37L198.21 30.74C197.33 30.68 196.4 30.55 195.53 30.49L195.53 30.5ZM142.09 32.72C152.07 32.72 158.43 26.46 158.43 16.48C158.43 6.44 152.09 0 142.09 0C132.48 0 126.22 5.86 125.66 15.12L115 15.12L115 9.31L111.84 9.31L111.84 15.12L101.23 15.12L101.23 10.84C101.23 3.71 97.81 -0.07 91.91 -0.07C86.44 -0.07 82.72 3.16 80.72 5.76L80.72 0.24L79.6 0.24C76.31 1.44 72.95 1.67 69.66 1.67C68.54 1.67 67.36 1.67 66.24 1.61L66.24 3.2C67.09 3.33 67.94 3.39 68.79 3.39L68.79 30.55L66.3 30.74L66.3 32.36C71.97 31.87 77.66 31.87 83.33 32.36L83.33 30.74C82.46 30.68 81.59 30.55 80.72 30.55L80.72 6.99C81.72 5.95 83.52 4.4 86 4.4C88.3 4.4 89.23 5.89 89.23 7.8L89.23 30.55L86.87 30.74L86.87 32.37C92.54 31.88 98.24 31.88 103.9 32.37L103.9 30.74C103.03 30.68 102.1 30.55 101.23 30.49L101.23 18.27L111.84 18.27L111.84 24.08L114.99 24.08L114.99 18.27L125.68 18.27C126.41 27.2 132.63 32.72 142.08 32.72L142.09 32.72ZM147.05 16.27C147.35 16.68 147.62 17.11 147.85 17.56C148.11 18.47 147.41 19.1 147 19.84C146.64 20.46 146.42 21.16 146.36 21.88C146.33 22.65 146.42 23.41 146.63 24.15C146.68 24.34 146.73 24.55 146.78 24.73L146.92 25.29C146.99 25.49 147.03 25.66 147.09 25.85C147.23 26.24 147.34 26.64 147.42 27.05C147.42 27.29 147.14 27.33 146.98 27.35C146.82 27.38 146.89 27.35 146.79 27.43C146.7 27.5 146.6 27.57 146.49 27.63C145.76 28.11 144.87 28.29 144 28.13L143.75 28.08L143.03 27.9L142.76 27.81C142.73 26.22 142.61 24.63 142.42 23.05C142.34 22.22 142.26 21.52 142.24 21.06C142.22 20.38 142.1 19.53 141.95 18.41C141.79 17.29 141.6 15.83 141.42 13.99C141.09 10.7 141.73 6.41 141.88 5.4L141.9 5.19C141.9 5.17 141.9 5.14 141.9 5.12C142.02 5.11 142.13 5.11 142.24 5.12C142.97 5.15 143.41 5.87 143.53 6.46C143.59 6.87 143.6 7.29 143.56 7.7C143.56 7.94 143.53 8.08 143.51 8.32C143.47 9.49 143.45 9.94 143.94 11.01C144.24 11.67 144.57 12.31 144.94 12.93L146.06 14.75C146.12 14.84 146.17 14.91 146.23 15C146.29 15.1 146.33 15.18 146.39 15.26L147.05 16.27ZM141.86 21.08C141.86 21.54 141.95 22.25 142.04 23.07C142.26 24.83 142.37 26.6 142.36 28.37C142.27 28.37 142.18 28.37 142.08 28.37L141.68 28.37C141.52 28.37 141.46 28.37 141.31 28.37C141.17 28.37 141.03 28.37 140.89 28.37C140.36 28.37 139.83 28.37 139.29 28.37L139.58 20.51L140.8 20.49C140.88 18.16 140.31 16.47 140.04 14.39C140.02 14.2 139.98 14.01 139.97 13.83C139.96 13.65 139.97 13.43 139.93 13.25C139.9 12.95 139.93 12.19 139.9 12.03C139.85 11.58 140.03 9.32 140.06 8.84L140.22 7.3C140.29 6.94 140.35 6.25 140.43 5.8L140.67 4.32C140.89 4.32 141.63 4.55 141.8 4.56L141.8 4.59C141.64 4.75 141.54 4.95 141.5 5.17L141.48 5.36C141.33 6.37 140.68 10.71 141.02 14.04C141.2 15.91 141.4 17.34 141.55 18.48C141.71 19.62 141.82 20.43 141.84 21.09L141.86 21.08ZM29.45 23.69C29.45 29.71 33.12 32.75 39.58 32.75C44.37 32.75 46.54 30.64 47.41 29.21C48.66 31.63 51.2 32.75 55.92 32.75C63.01 32.75 64.13 27.04 64.13 27.04L63.33 27.04C63.17 27.58 62.85 28.05 62.4 28.38C61.95 28.72 61.41 28.9 60.85 28.9C59.36 28.9 58.54 27.84 58.54 25.86L58.54 11.34C58.54 4.97 54.63 0 44.01 0C37.09 0 31.69 2.85 31.69 7.5C31.69 10.17 33.55 12.4 36.41 12.4C39.4 12.4 41.63 10.17 41.63 7.5C41.63 5.91 40.39 4.28 38.46 3.12C38.46 3.12 39.4 1.12 42.86 1.12C46.21 1.12 46.58 3.12 46.58 5.15L46.58 16.12C44.71 15.21 42.66 14.74 40.57 14.75C33.78 14.75 29.45 18.09 29.45 23.68L29.45 23.69ZM40.7 23.25C40.7 19.67 42.5 17.05 46.23 17.05L46.6 17.05L46.6 24.56C46.59 25.88 46.76 27.19 47.1 28.47C46.83 28.73 46.51 28.93 46.16 29.07C45.8 29.21 45.43 29.27 45.05 29.26C42.32 29.26 40.7 27.03 40.7 23.25L40.7 23.25Z" fill="#C9A95C" fill-opacity="1.000000" fill-rule="evenodd"/>
</svg>
