<svg width="50.000000" height="50.000000" viewBox="0 0 50 50" fill="none" xmlns="http://www.w3.org/2000/svg" xmlns:xlink="http://www.w3.org/1999/xlink">
	<desc>
			Created with Pixso.
	</desc>
	<defs/>
	<circle id="Ellipse 7" cx="24.999023" cy="25.000000" r="25.000000" fill="#FFFFFF" fill-opacity="0.300000"/>
	<path id="Icon" d="M25 11.87C21.47 11.87 18.62 14.72 18.62 18.25C18.62 21.77 21.47 24.62 25 24.62C28.52 24.62 31.37 21.77 31.37 18.25C31.37 14.72 28.52 11.87 25 11.87ZM20.87 18.25C20.87 15.97 22.72 14.12 25 14.12C27.27 14.12 29.12 15.97 29.12 18.25C29.12 20.52 27.27 22.37 25 22.37C22.72 22.37 20.87 20.52 20.87 18.25ZM19 26.87C15.89 26.87 13.37 29.39 13.37 32.5L13.37 34.28C13.37 35.41 14.19 36.37 15.3 36.55C21.72 37.6 28.27 37.6 34.69 36.55C35.8 36.37 36.62 35.41 36.62 34.28L36.62 32.5C36.62 29.39 34.1 26.87 31 26.87L30.48 26.87C30.21 26.87 29.93 26.91 29.67 27L28.37 27.42C26.18 28.14 23.81 28.14 21.62 27.42L20.32 27C20.06 26.91 19.78 26.87 19.51 26.87L19 26.87ZM15.62 32.5C15.62 30.63 17.13 29.12 19 29.12L19.51 29.12C19.55 29.12 19.58 29.13 19.62 29.14L20.92 29.56C23.57 30.43 26.42 30.43 29.07 29.56L30.37 29.14C30.41 29.13 30.44 29.12 30.48 29.12L31 29.12C32.86 29.12 34.37 30.63 34.37 32.5L34.37 34.28C34.37 34.3 34.35 34.33 34.32 34.33C28.15 35.34 21.84 35.34 15.67 34.33C15.64 34.33 15.62 34.3 15.62 34.28L15.62 32.5Z" fill="#FFFFFF" fill-opacity="1.000000" fill-rule="evenodd"/>
</svg>

