<svg width="210.000000" height="30.000000" viewBox="0 0 210 30" fill="none" xmlns="http://www.w3.org/2000/svg" xmlns:xlink="http://www.w3.org/1999/xlink">
	<desc>
			Created with Pixso.
	</desc>
	<defs>
		<clipPath id="clip49_30">
			<rect id="Artboard 1 1" width="210.000000" height="30.000000" fill="white" fill-opacity="0"/>
		</clipPath>
	</defs>
	<rect id="Artboard 1 1" width="210.000000" height="30.000000" fill="#FFFFFF" fill-opacity="0"/>
	<g clip-path="url(#clip49_30)">
		<path id="Vector" d="M0 9.42C0 19 13.84 18.48 13.84 25.2C13.86 25.68 13.77 26.16 13.6 26.61C13.42 27.06 13.15 27.46 12.81 27.8C12.47 28.14 12.07 28.41 11.62 28.58C11.17 28.76 10.69 28.84 10.21 28.82C5.12 28.82 2.63 24.15 2.63 22C2.59 21.11 2.48 20.22 2.3 19.35L0.72 19.35C0.9 21.08 1.08 22.83 1.08 24.64C1.08 26.33 0.91 28.08 0.74 29.77L2.31 29.77L2.42 28.14C3.95 28.64 6.38 30 10.84 30C19.09 30 22.83 26.33 22.83 20.64C22.83 10.09 8.48 11.44 8.48 4.74C8.48 2.92 9.27 1.18 12.54 1.18C18.08 1.18 19.55 6.98 19.55 8.79C19.53 8.89 19.55 8.99 19.61 9.08C19.66 9.7 19.72 10.32 19.83 10.94L21.47 10.94C21.22 9.2 21.08 7.44 21.06 5.69C21.06 4.4 21.17 3.15 21.28 1.85L21.28 1.74L21.45 0.5L19.83 0.5L19.77 1.12C17.26 0.33 14.65 -0.04 12.03 0C3.55 0 0 3.66 0 9.42ZM210 13.99L210 13.36C209.32 5.41 205.3 0.28 197.28 0L196.56 0C187.73 0.39 182.26 6.08 182.26 14.99C182.26 24.07 188.02 29.77 197.28 29.77C206.77 29.77 209.15 21.53 209.15 21.53L208.35 21.02C208.35 21.02 205.47 27.61 198.87 27.61C194.06 27.61 193.27 25.13 193.27 14.98L193.27 13.97L210 13.99ZM197 1.3C199.37 1.47 200.11 3.61 200.22 12.63L193.27 12.63C193.44 3.62 194.46 1.46 197 1.29L197 1.3ZM177.75 27.73L177.75 9.85C177.75 3.38 174.64 -0.06 169.28 -0.06C164.31 -0.06 160.93 2.87 159.11 5.24L159.11 0.22L158.09 0.22C155.1 1.31 152.05 1.52 149.06 1.52C148.04 1.52 146.97 1.52 145.95 1.46L145.95 2.91C146.72 3.02 147.49 3.08 148.26 3.08L148.26 27.78L146 27.94L146 29.42C151.16 28.97 156.34 28.97 161.49 29.42L161.49 27.94C160.69 27.89 159.9 27.78 159.11 27.78L159.11 6.36C160.02 5.41 161.66 4 163.91 4C166.01 4 166.85 5.35 166.85 7.09L166.85 27.78L164.71 27.94L164.71 29.43C169.86 28.98 175.04 28.98 180.19 29.43L180.19 27.94C179.39 27.89 178.55 27.78 177.76 27.72L177.75 27.73ZM129.17 29.75C138.25 29.75 144.03 24.05 144.03 14.98C144.03 5.85 138.27 0 129.17 0C120.44 0 114.74 5.33 114.24 13.75L104.55 13.75L104.55 8.46L101.67 8.46L101.67 13.75L92.03 13.75L92.03 9.85C92.03 3.38 88.92 -0.06 83.55 -0.06C78.58 -0.06 75.2 2.87 73.38 5.24L73.38 0.22L72.37 0.22C69.37 1.31 66.32 1.52 63.32 1.52C62.31 1.52 61.24 1.52 60.22 1.46L60.22 2.91C60.99 3.02 61.76 3.08 62.54 3.08L62.54 27.78L60.27 27.94L60.27 29.42C65.42 28.97 70.6 28.97 75.75 29.42L75.75 27.94C74.96 27.89 74.17 27.78 73.38 27.78L73.38 6.36C74.29 5.41 75.92 4 78.18 4C80.28 4 81.12 5.35 81.12 7.09L81.12 27.78L78.98 27.94L78.98 29.43C84.12 28.98 89.3 28.98 94.46 29.43L94.46 27.94C93.66 27.89 92.81 27.78 92.03 27.72L92.03 16.61L101.67 16.61L101.67 21.89L104.54 21.89L104.54 16.61L114.26 16.61C114.92 24.73 120.57 29.75 129.16 29.75L129.17 29.75ZM133.68 14.79C133.95 15.16 134.2 15.56 134.41 15.96C134.65 16.79 134.01 17.36 133.64 18.03C133.31 18.6 133.11 19.24 133.06 19.89C133.02 20.59 133.1 21.28 133.3 21.95C133.35 22.13 133.39 22.31 133.43 22.49L133.57 22.99C133.62 23.17 133.67 23.33 133.72 23.5C133.85 23.85 133.95 24.22 134.02 24.59C134.02 24.81 133.77 24.84 133.62 24.87C133.47 24.89 133.53 24.87 133.45 24.94C133.36 25 133.27 25.06 133.18 25.12C132.51 25.55 131.7 25.72 130.91 25.57L130.68 25.53L130.02 25.37L129.78 25.28C129.75 23.83 129.65 22.39 129.47 20.95C129.39 20.2 129.33 19.56 129.31 19.14C129.29 18.53 129.18 17.76 129.04 16.74C128.9 15.71 128.72 14.39 128.56 12.71C128.27 9.73 128.84 5.83 128.98 4.91L129 4.72C129 4.7 129 4.67 129 4.65C129.1 4.64 129.21 4.64 129.31 4.65C129.97 4.68 130.37 5.33 130.48 5.87C130.54 6.25 130.55 6.62 130.51 7C130.51 7.21 130.48 7.34 130.47 7.56C130.43 8.63 130.41 9.04 130.86 10.01C131.13 10.61 131.43 11.19 131.77 11.75L132.78 13.41C132.83 13.49 132.88 13.55 132.93 13.64C132.99 13.72 133.03 13.8 133.08 13.87L133.68 14.79ZM128.96 19.16C128.96 19.58 129.04 20.23 129.12 20.97C129.33 22.57 129.42 24.18 129.42 25.79C129.33 25.79 129.25 25.79 129.17 25.79L128.8 25.79C128.65 25.79 128.6 25.79 128.47 25.79C128.34 25.79 128.21 25.79 128.08 25.79C127.6 25.79 127.12 25.79 126.63 25.79L126.89 18.65L128 18.62C128.07 16.51 127.56 14.97 127.31 13.08C127.29 12.91 127.26 12.74 127.25 12.57C127.23 12.41 127.25 12.21 127.21 12.04C127.18 11.77 127.21 11.08 127.18 10.93C127.14 10.53 127.3 8.48 127.32 8.03L127.47 6.63C127.54 6.31 127.59 5.68 127.66 5.27L127.88 3.93C128.09 3.93 128.76 4.14 128.91 4.15L128.91 4.17C128.77 4.32 128.67 4.5 128.64 4.7L128.61 4.88C128.48 5.79 127.89 9.73 128.2 12.77C128.36 14.46 128.54 15.76 128.68 16.8C128.83 17.84 128.93 18.57 128.95 19.17L128.96 19.16ZM26.77 21.53C26.77 27 30.11 29.77 35.98 29.77C40.34 29.77 42.31 27.85 43.1 26.56C44.23 28.75 46.55 29.77 50.84 29.77C57.28 29.77 58.3 24.58 58.3 24.58L57.57 24.58C57.43 25.07 57.13 25.5 56.73 25.8C56.32 26.11 55.82 26.27 55.31 26.27C53.96 26.27 53.22 25.31 53.22 23.51L53.22 10.31C53.22 4.51 49.66 0 40 0C33.72 0 28.81 2.59 28.81 6.82C28.81 9.25 30.5 11.27 33.1 11.27C35.81 11.27 37.85 9.25 37.85 6.82C37.85 5.37 36.72 3.89 34.96 2.83C34.96 2.83 35.81 1.02 38.96 1.02C42.01 1.02 42.35 2.83 42.35 4.68L42.35 14.66C40.64 13.83 38.78 13.4 36.88 13.41C30.71 13.41 26.77 16.45 26.77 21.52L26.77 21.53ZM37 21.14C37 17.88 38.64 15.5 42.03 15.5L42.37 15.5L42.37 22.33C42.35 23.52 42.51 24.72 42.82 25.88C42.57 26.12 42.28 26.3 41.96 26.43C41.64 26.55 41.3 26.61 40.95 26.6C38.47 26.6 37 24.57 37 21.13L37 21.14Z" fill="#FFFFFF" fill-opacity="1.000000" fill-rule="evenodd"/>
	</g>
</svg>
