<svg width="26.000000" height="26.000000" viewBox="0 0 26 26" fill="none" xmlns="http://www.w3.org/2000/svg" xmlns:xlink="http://www.w3.org/1999/xlink">
	<desc>
			Created with Pixso.
	</desc>
	<defs/>
	<path id="Icon" d="M15.58 16.73C12.71 19.03 8.51 18.85 5.84 16.18C2.99 13.33 2.99 8.7 5.84 5.84C8.7 2.99 13.33 2.99 16.19 5.84C18.85 8.5 19.03 12.71 16.73 15.58L22.31 21.16C22.63 21.48 22.63 22 22.31 22.31C22 22.63 21.48 22.63 21.16 22.31L15.58 16.73ZM6.99 15.04C4.77 12.82 4.77 9.21 6.99 6.99C9.21 4.77 12.82 4.77 15.04 6.99C17.26 9.21 17.26 12.81 15.04 15.03C15.04 15.03 15.04 15.03 15.04 15.04C15.03 15.04 15.03 15.04 15.03 15.04C12.81 17.26 9.21 17.25 6.99 15.04Z" fill="#FFFFFF" fill-opacity="1.000000" fill-rule="evenodd"/>
</svg>
