<svg width="345.000000" height="35.000000" viewBox="0 0 345 35" fill="none" xmlns="http://www.w3.org/2000/svg" xmlns:xlink="http://www.w3.org/1999/xlink">
	<desc>
			Created with Pixso.
	</desc>
	<defs>
		<clipPath id="clip84_242">
			<rect id="eva:arrow-back-fill" width="40.000000" height="35.000000" fill="white" fill-opacity="0"/>
		</clipPath>
		<clipPath id="clip84_244">
			<rect id="eva:arrow-back-fill" width="40.000000" height="35.000000" transform="translate(345.000000 35.000000) rotate(-179.999985)" fill="white" fill-opacity="0"/>
		</clipPath>
	</defs>
	<circle id="Ellipse 11" cx="132.500000" cy="17.500000" r="7.500000" fill="#C4C4C4" fill-opacity="1.000000"/>
	<circle id="Ellipse 15" cx="82.500000" cy="17.500000" r="12.500000" fill="#DCBB45" fill-opacity="1.000000"/>
	<circle id="Ellipse 12" cx="177.500000" cy="17.500000" r="7.500000" fill="#C4C4C4" fill-opacity="1.000000"/>
	<circle id="Ellipse 13" cx="222.500000" cy="17.500000" r="7.500000" fill="#C4C4C4" fill-opacity="1.000000"/>
	<circle id="Ellipse 14" cx="267.500000" cy="17.500000" r="7.500000" fill="#C4C4C4" fill-opacity="1.000000"/>
	<g clip-path="url(#clip84_242)">
		<path id="Vector" d="M31.66 16.04L11.9 16.04L17.95 9.68C18.23 9.38 18.36 9 18.32 8.61C18.28 8.23 18.07 7.87 17.73 7.62C17.39 7.37 16.95 7.25 16.51 7.29C16.07 7.33 15.66 7.51 15.38 7.81L7.05 16.56C6.99 16.63 6.94 16.7 6.9 16.78C6.9 16.85 6.9 16.9 6.78 16.97C6.7 17.14 6.66 17.32 6.66 17.5C6.66 17.67 6.7 17.85 6.78 18.02C6.78 18.09 6.78 18.14 6.9 18.21C6.94 18.28 6.99 18.36 7.05 18.43L15.38 27.18C15.54 27.34 15.73 27.48 15.95 27.57C16.18 27.66 16.42 27.7 16.66 27.7C17.05 27.7 17.43 27.58 17.73 27.37C17.9 27.25 18.04 27.09 18.14 26.92C18.24 26.75 18.3 26.57 18.32 26.38C18.34 26.19 18.32 26 18.26 25.81C18.19 25.63 18.09 25.46 17.95 25.31L11.9 18.95L31.66 18.95C32.1 18.95 32.53 18.8 32.84 18.53C33.15 18.25 33.33 17.88 33.33 17.5C33.33 17.11 33.15 16.74 32.84 16.46C32.53 16.19 32.1 16.04 31.66 16.04Z" fill="#D2D2D2" fill-opacity="1.000000" fill-rule="nonzero"/>
	</g>
	<g clip-path="url(#clip84_244)">
		<path id="Vector" d="M313.33 18.95L333.1 18.95L327.04 25.31C326.76 25.61 326.63 26 326.67 26.38C326.71 26.76 326.92 27.12 327.26 27.37C327.6 27.62 328.04 27.74 328.48 27.7C328.92 27.66 329.33 27.48 329.61 27.18L337.94 18.43C338 18.36 338.05 18.29 338.1 18.21C338.1 18.14 338.1 18.09 338.21 18.02C338.29 17.85 338.33 17.67 338.33 17.5C338.33 17.32 338.29 17.14 338.21 16.97C338.21 16.9 338.21 16.85 338.1 16.78C338.05 16.71 338 16.63 337.94 16.56L329.61 7.81C329.46 7.65 329.26 7.51 329.04 7.42C328.81 7.33 328.57 7.29 328.33 7.29C327.94 7.29 327.56 7.41 327.26 7.62C327.09 7.75 326.95 7.9 326.85 8.07C326.75 8.24 326.69 8.42 326.67 8.61C326.65 8.8 326.67 9 326.73 9.18C326.8 9.36 326.9 9.53 327.04 9.68L333.1 16.04L313.33 16.04C312.89 16.04 312.46 16.19 312.15 16.46C311.84 16.74 311.66 17.11 311.66 17.5C311.66 17.88 311.84 18.25 312.15 18.53C312.46 18.8 312.89 18.95 313.33 18.95Z" fill="#D2D2D2" fill-opacity="1.000000" fill-rule="nonzero"/>
	</g>
</svg>
