<svg width="17.000000" height="13.000000" viewBox="0 0 17 13" fill="none" xmlns="http://www.w3.org/2000/svg" xmlns:xlink="http://www.w3.org/1999/xlink">
	<desc>
			Created with Pixso.
	</desc>
	<defs/>
	<path id="Vector" d="M0.3 7.16L13.36 7.16L9.36 11.36C9.17 11.56 9.08 11.81 9.11 12.07C9.14 12.32 9.28 12.56 9.5 12.72C9.73 12.88 10.02 12.96 10.31 12.94C10.6 12.91 10.87 12.79 11.06 12.59L16.57 6.81C16.6 6.76 16.64 6.72 16.66 6.67C16.66 6.62 16.66 6.59 16.74 6.54C16.79 6.43 16.82 6.31 16.82 6.19C16.82 6.08 16.79 5.96 16.74 5.85C16.74 5.8 16.74 5.77 16.66 5.72C16.64 5.67 16.6 5.62 16.57 5.58L11.06 -0.21C10.96 -0.31 10.83 -0.4 10.68 -0.46C10.53 -0.52 10.37 -0.55 10.21 -0.55C9.95 -0.55 9.7 -0.47 9.5 -0.33C9.39 -0.25 9.3 -0.15 9.23 -0.04C9.17 0.07 9.12 0.2 9.11 0.32C9.1 0.45 9.11 0.58 9.16 0.7C9.2 0.82 9.27 0.93 9.36 1.03L13.36 5.23L0.3 5.23C0 5.23 -0.28 5.33 -0.48 5.51C-0.69 5.69 -0.81 5.94 -0.81 6.19C-0.81 6.45 -0.69 6.69 -0.48 6.88C-0.28 7.06 0 7.16 0.3 7.16Z" fill=" #000000" fill-opacity="1.000000" fill-rule="nonzero"/>
</svg>
