<svg width="25.000000" height="27.000000" viewBox="0 0 25 27" fill="none" xmlns="http://www.w3.org/2000/svg" xmlns:xlink="http://www.w3.org/1999/xlink">
	<desc>
			Created with Pixso.
	</desc>
	<defs/>
	<path id="Vector" d="M4.6 17.51C5.74 17.51 6.85 17.06 7.69 16.26L15.9 21.08C15.63 22.18 15.75 23.35 16.24 24.37C16.74 25.39 17.58 26.19 18.6 26.63C19.63 27.07 20.77 27.11 21.82 26.76C22.88 26.4 23.77 25.66 24.34 24.68C24.91 23.71 25.12 22.55 24.92 21.43C24.73 20.31 24.15 19.29 23.29 18.57C22.43 17.85 21.34 17.48 20.23 17.51C19.12 17.55 18.07 17.99 17.25 18.76L9.03 13.94C9.12 13.61 9.17 13.26 9.18 12.91L17.25 8.17C18.02 8.9 19.02 9.33 20.07 9.39C21.12 9.45 22.15 9.14 23.01 8.51C23.86 7.88 24.47 6.96 24.75 5.92C25.02 4.88 24.94 3.77 24.51 2.79C24.08 1.8 23.34 1 22.41 0.51C21.47 0.02 20.4 -0.13 19.37 0.1C18.34 0.32 17.42 0.91 16.76 1.75C16.1 2.58 15.75 3.63 15.75 4.71C15.75 5.1 15.8 5.49 15.9 5.86L8.44 10.24C8.01 9.55 7.41 8.99 6.71 8.61C6 8.23 5.21 8.05 4.41 8.08C3.62 8.11 2.84 8.36 2.16 8.79C1.49 9.22 0.93 9.83 0.55 10.54C0.17 11.26 -0.02 12.07 0 12.89C0.01 13.71 0.23 14.51 0.64 15.21C1.05 15.91 1.63 16.49 2.32 16.9C3.02 17.3 3.8 17.51 4.6 17.51Z" fill="#C9A95C" fill-opacity="1.000000" fill-rule="nonzero"/>
</svg>
