<svg width="50.000000" height="50.000000" viewBox="0 0 50 50" fill="none" xmlns="http://www.w3.org/2000/svg" xmlns:xlink="http://www.w3.org/1999/xlink">
	<desc>
			Created with Pixso.
	</desc>
	<defs/>
	<circle id="Til" cx="25.000000" cy="25.000000" r="25.000000" fill="#FFFFFF" fill-opacity="0.300000"/>
	<path id="UZ" d="M15.98 31.56C16.72 31.84 17.58 31.97 18.56 31.97Q20.02 31.97 21.13 31.56C21.86 31.29 22.47 30.9 22.96 30.4Q23.07 30.28 23.18 30.15Q23.75 29.45 24.06 28.54C24.31 27.8 24.43 26.99 24.43 26.1L24.43 17.31L22.64 17.31L22.64 26.08Q22.64 27.93 21.74 29.07Q21.67 29.15 21.6 29.23Q21.46 29.38 21.3 29.52Q20.29 30.37 18.56 30.37Q16.82 30.37 15.81 29.52Q15.65 29.38 15.51 29.23Q15.44 29.15 15.37 29.07Q14.47 27.93 14.47 26.08L14.47 17.31L12.68 17.31L12.68 26.12Q12.68 27.46 13.05 28.54Q13.38 29.51 14 30.21Q14.07 30.3 14.15 30.37C14.64 30.88 15.25 31.27 15.98 31.56ZM27.16 30.22L27.16 31.71L37.7 31.71L37.7 30.11L29.45 30.11L37.55 18.8L37.55 17.31L27.16 17.31L27.16 18.9L35.26 18.9L27.16 30.22Z" fill="#FFFFFF" fill-opacity="1.000000" fill-rule="evenodd"/>
</svg>
