<svg width="9.000000" height="21.000000" viewBox="0 0 9 21" fill="none" xmlns="http://www.w3.org/2000/svg" xmlns:xlink="http://www.w3.org/1999/xlink">
	<desc>
			Created with Pixso.
	</desc>
	<defs/>
	<path id="Path 38" d="M5.34 20.77L5.34 11.2L8.24 11.2L8.66 7.46L5.34 7.46L5.34 5.12C5.34 4.07 5.65 3.25 7 3.25L8.76 3.25L8.76 -0.14C8.35 -0.14 7.32 -0.25 6.17 -0.25C5.59 -0.3 5.01 -0.2 4.47 0.03C3.93 0.27 3.44 0.63 3.04 1.09C2.63 1.56 2.32 2.12 2.13 2.74C1.94 3.35 1.86 4 1.92 4.65L1.92 7.46L-0.98 7.46L-0.98 11.19L1.92 11.19L1.92 20.77L5.34 20.77Z" fill="#FFFFFF" fill-opacity="1.000000" fill-rule="evenodd"/>
</svg>
