<svg width="19.000000" height="21.000000" viewBox="0 0 19 21" fill="none" xmlns="http://www.w3.org/2000/svg" xmlns:xlink="http://www.w3.org/1999/xlink">
	<desc>
			Created with Pixso.
	</desc>
	<defs/>
	<path id="Path 40" d="M9.35 1.69C10.59 1.63 11.84 1.67 13.08 1.8C13.68 1.79 14.28 1.91 14.84 2.15C15.62 2.56 16.25 3.26 16.61 4.14C16.82 4.77 16.92 5.45 16.92 6.13C16.92 7.18 17.02 7.53 17.02 10.33C17.06 11.73 17.03 13.14 16.92 14.53C16.92 15.21 16.82 15.89 16.6 16.52C16.24 17.39 15.62 18.1 14.84 18.51C14.28 18.75 13.68 18.86 13.08 18.86C12.15 18.86 11.83 18.97 9.35 18.97C8.1 19.02 6.86 18.98 5.62 18.85C5.01 18.86 4.42 18.74 3.85 18.5C3.08 18.1 2.45 17.39 2.09 16.52C1.88 15.89 1.77 15.21 1.78 14.54C1.78 13.48 1.68 13.13 1.68 10.33C1.63 8.93 1.66 7.53 1.78 6.13C1.77 5.45 1.88 4.78 2.09 4.14C2.27 3.71 2.52 3.31 2.82 2.97C3.06 2.57 3.43 2.27 3.85 2.16C4.42 1.92 5.01 1.8 5.62 1.81C6.86 1.68 8.1 1.64 9.35 1.69L9.35 1.69ZM9.35 -0.18C8.07 -0.23 6.79 -0.19 5.52 -0.07C4.73 -0.07 3.96 0.09 3.23 0.4C2.6 0.64 2.03 1.04 1.57 1.57C1.1 2.09 0.74 2.73 0.53 3.44C0.21 4.25 0.06 5.13 0.12 6.01C0 7.45 -0.03 8.89 0.02 10.33C-0.03 11.77 0 13.22 0.12 14.65C0.11 15.53 0.25 16.4 0.53 17.22C0.74 17.93 1.09 18.57 1.57 19.09C2.03 19.62 2.6 20.03 3.23 20.26C3.96 20.57 4.73 20.73 5.51 20.72C6.78 20.85 8.06 20.89 9.34 20.84C10.62 20.89 11.91 20.85 13.18 20.72C13.96 20.73 14.73 20.57 15.46 20.26C16.09 20.01 16.66 19.61 17.12 19.09C17.59 18.56 17.95 17.92 18.16 17.22C18.44 16.39 18.58 15.52 18.58 14.65C18.58 13.48 18.68 13.13 18.68 10.33C18.72 8.88 18.69 7.44 18.58 6.01C18.58 5.13 18.44 4.26 18.16 3.44C17.96 2.73 17.6 2.09 17.13 1.57C16.67 1.03 16.1 0.63 15.47 0.4C14.74 0.09 13.97 -0.07 13.19 -0.07C11.91 -0.19 10.63 -0.23 9.35 -0.18ZM9.35 4.96C8.72 4.95 8.09 5.08 7.51 5.34C6.93 5.61 6.4 6.01 5.95 6.51C5.51 7.01 5.16 7.6 4.92 8.26C4.68 8.92 4.57 9.62 4.58 10.33C4.58 11.39 4.86 12.43 5.38 13.31C5.91 14.2 6.65 14.89 7.52 15.29C8.39 15.7 9.35 15.81 10.28 15.6C11.2 15.39 12.05 14.88 12.72 14.13C13.39 13.38 13.84 12.42 14.03 11.38C14.21 10.34 14.12 9.26 13.76 8.27C13.39 7.29 12.78 6.45 12 5.86C11.21 5.27 10.29 4.96 9.35 4.96ZM9.35 13.83C8.94 13.84 8.53 13.76 8.15 13.58C7.77 13.41 7.42 13.15 7.13 12.83C6.84 12.5 6.61 12.11 6.46 11.68C6.31 11.25 6.23 10.79 6.24 10.33C6.23 9.87 6.31 9.41 6.46 8.98C6.61 8.55 6.84 8.16 7.13 7.83C7.42 7.51 7.77 7.25 8.15 7.08C8.53 6.9 8.94 6.82 9.35 6.83C9.76 6.82 10.17 6.9 10.55 7.08C10.93 7.25 11.27 7.51 11.56 7.83C11.86 8.16 12.08 8.55 12.24 8.98C12.39 9.41 12.47 9.87 12.46 10.33C12.47 10.79 12.39 11.25 12.24 11.68C12.08 12.11 11.86 12.5 11.56 12.83C11.27 13.15 10.93 13.41 10.55 13.58C10.17 13.76 9.76 13.84 9.35 13.83ZM14.33 3.44C14.1 3.44 13.88 3.52 13.69 3.66C13.51 3.8 13.36 4 13.27 4.23C13.19 4.47 13.16 4.73 13.21 4.98C13.25 5.22 13.36 5.45 13.52 5.63C13.68 5.81 13.88 5.94 14.1 5.98C14.33 6.03 14.55 6.01 14.76 5.91C14.97 5.81 15.15 5.65 15.28 5.44C15.4 5.23 15.47 4.98 15.47 4.72C15.46 4.38 15.34 4.06 15.13 3.82C14.92 3.58 14.63 3.44 14.33 3.44Z" fill="#FFFFFF" fill-opacity="1.000000" fill-rule="evenodd"/>
</svg>
