<svg width="159.000000" height="77.000000" viewBox="0 0 159 77" fill="none" xmlns="http://www.w3.org/2000/svg" xmlns:xlink="http://www.w3.org/1999/xlink">
	<desc>
			Created with Pixso.
	</desc>
	<defs/>
	<path id="LUXURY" d="M20.15 29L1.52 29L1.52 -0.1L7.68 -0.1L7.68 23.93L20.15 23.93L20.15 29ZM48.19 18.27L48.19 -0.1L54.34 -0.1L54.34 18.8C54.34 25.16 49.51 29.41 42.28 29.41C35.03 29.41 30.22 25.16 30.22 18.8L30.22 -0.1L36.38 -0.1L36.38 18.27C36.38 21.59 38.72 24 42.28 24C45.86 24 48.19 21.59 48.19 18.27ZM64.19 -0.1L71.16 -0.1L77.03 9.82L77.25 9.82L83.15 -0.1L90.1 -0.1L81.22 14.45L90.3 29L83.22 29L77.25 19.06L77.03 19.06L71.06 29L64.02 29L73.12 14.45L64.19 -0.1ZM117.95 18.27L117.95 -0.1L124.1 -0.1L124.1 18.8C124.1 25.16 119.27 29.41 112.04 29.41C104.78 29.41 99.98 25.16 99.98 18.8L99.98 -0.1L106.13 -0.1L106.13 18.27C106.13 21.59 108.48 24 112.04 24C115.61 24 117.95 21.59 117.95 18.27ZM141.31 29L135.16 29L135.16 -0.1L146.63 -0.1C153.24 -0.1 157.06 3.62 157.06 9.41C157.06 13.38 155.22 16.27 151.91 17.69L158.09 29L151.31 29L145.79 18.68L141.31 18.68L141.31 29ZM141.31 4.93L141.31 13.74L145.48 13.74C149 13.74 150.72 12.29 150.72 9.41C150.72 6.5 149 4.93 145.45 4.93L141.31 4.93ZM10.43 66.71L-0.18 47.9L6.71 47.9L13.34 60.43L13.62 60.43L20.25 47.9L27.15 47.9L16.53 66.71L16.53 77L10.43 77L10.43 66.71Z" fill="#14274A" fill-opacity="1.000000" fill-rule="evenodd"/>
</svg>
