<svg width="18.000000" height="17.000000" viewBox="0 0 18 17" fill="none" xmlns="http://www.w3.org/2000/svg" xmlns:xlink="http://www.w3.org/1999/xlink">
	<desc>
			Created with Pixso.
	</desc>
	<defs/>
	<path id="Path 39" d="M4.93 16.34C6.36 16.35 7.78 16.04 9.11 15.43C10.44 14.82 11.64 13.92 12.66 12.78C13.67 11.64 14.47 10.28 15.01 8.78C15.56 7.29 15.83 5.69 15.82 4.07L15.82 3.49C16.54 2.87 17.17 2.12 17.68 1.27C16.99 1.61 16.25 1.85 15.5 1.97C16.28 1.43 16.86 0.6 17.16 -0.36C16.41 0.11 15.61 0.46 14.78 0.69C14.43 0.24 14 -0.11 13.51 -0.35C13.03 -0.6 12.51 -0.72 11.98 -0.71C10.97 -0.69 10 -0.23 9.28 0.57C8.57 1.38 8.16 2.47 8.14 3.61C8.12 3.92 8.15 4.24 8.24 4.54C6.72 4.46 5.22 4.01 3.86 3.22C2.5 2.44 1.31 1.34 0.36 -0.01C0.02 0.66 -0.16 1.43 -0.16 2.21C-0.14 2.91 0.01 3.61 0.3 4.23C0.59 4.86 1 5.41 1.5 5.83C0.88 5.81 0.27 5.61 -0.26 5.24C-0.26 6.24 0.05 7.21 0.62 7.98C1.18 8.75 1.97 9.27 2.85 9.45C2.51 9.55 2.16 9.59 1.81 9.56C1.57 9.58 1.32 9.54 1.09 9.45C1.34 10.31 1.82 11.07 2.47 11.61C3.12 12.16 3.91 12.46 4.72 12.49C3.35 13.69 1.68 14.34 -0.05 14.36C-0.37 14.38 -0.68 14.34 -0.99 14.24C0.73 15.65 2.8 16.38 4.92 16.35L4.93 16.34Z" fill="#FFFFFF" fill-opacity="1.000000" fill-rule="evenodd"/>
</svg>
